/* XPM */
static char * a02_xpm[] = {
"16 16 17 1",
" 	c #FFFFFF",
".	c #C9C9C9",
"+	c #848484",
"@	c #939393",
"#	c #A8A8A8",
"$	c #747474",
"%	c #B8B8B8",
"&	c #EAEAEA",
"*	c #9E9E9E",
"=	c #777777",
"-	c #707070",
";	c #D1D1D1",
">	c #5D5D5D",
",	c #919191",
"'	c #878787",
")	c #D7D7D7",
"!	c #9A9A9A",
"                ",
"           ..   ",
"    +@@@#$ %+   ",
"   @%   &%#**   ",
"  @       =-*   ",
" +.       ;>,   ",
" '        &+.   ",
"&#        .*.   ",
" #&       +,.   ",
" #%       @..   ",
"  $      ....   ",
"   @     ** #)  ",
"   .$###$.  #!# ",
"     &&&      & ",
"                ",
"                "};
