/* XPM */
static char * a04_xpm[] = {
"16 16 19 1",
" 	c #FFFFFF",
".	c #C9C9C9",
"+	c #EAEAEA",
"@	c #939393",
"#	c #A8A8A8",
"$	c #B8B8B8",
"%	c #9E9E9E",
"&	c #686868",
"*	c #7D7D7D",
"=	c #D7D7D7",
"-	c #404040",
";	c #474747",
">	c #ECECEC",
",	c #848484",
"'	c #5A5A5A",
")	c #FCFCFC",
"!	c #6F6F6F",
"~	c #616161",
"{	c #919191",
"                ",
"     ...++ ..   ",
"    @...##$%%   ",
"   %%     &*%   ",
"  =#      +-+   ",
"  #       +;>   ",
" ,.       +')   ",
" $.       =!    ",
" +#       +~    ",
"  %%      %*.   ",
"  ..     ..,{   ",
"   .$+  .&$ .,  ",
"    ##....   $% ",
"      ..      %#",
"               +",
"                "};
