/* XPM */
static char * a06_xpm[] = {
"16 16 14 1",
" 	c #FFFFFF",
".	c #EAEAEA",
"+	c #C9C9C9",
"@	c #A8A8A8",
"#	c #848484",
"$	c #B8B8B8",
"%	c #6F6F6F",
"&	c #D7D7D7",
"*	c #434343",
"=	c #939393",
"-	c #505050",
";	c #9E9E9E",
">	c #878787",
",	c #9A9A9A",
"                ",
"                ",
"     .+++. @.   ",
"    +@+++#$%&   ",
"   .#     @*&   ",
"   =      +-.   ",
"  ;+      @>    ",
"  ;+      ==    ",
"  @.      @>    ",
"  ;;     .@=    ",
"   @.    #$=   =",
"    =    = @. .,",
"     =++;+ .@.+@",
"      +++    @+ ",
"                ",
"                "};
