/* XPM */
static char * a11_xpm[] = {
"16 16 12 1",
" 	c #FFFFFF",
".	c #EAEAEA",
"+	c #C9C9C9",
"@	c #A8A8A8",
"#	c #9E9E9E",
"$	c #797979",
"%	c #848484",
"&	c #939393",
"*	c #616161",
"=	c #6F6F6F",
"-	c #7D7D7D",
";	c #B8B8B8",
"                ",
"                ",
"         .      ",
"      ++.@      ",
"     +#+$%      ",
"   .&   .*      ",
"   @    .=.     ",
"  &     +%.     ",
" .@     +-#     ",
"  ++    @;+ ++  ",
"   @;. ++.@+&   ",
"    #%&&   +    ",
"                ",
"                ",
"                ",
"                "};
