/* XPM */
static char * a12_xpm[] = {
"16 16 14 1",
" 	c #FFFFFF",
".	c #EAEAEA",
"+	c #9E9E9E",
"@	c #C9C9C9",
"#	c #939393",
"$	c #A8A8A8",
"%	c #7D7D7D",
"&	c #B8B8B8",
"*	c #747474",
"=	c #676767",
"-	c #B4B4B4",
";	c #848484",
">	c #686868",
",	c #A9A9A9",
"      .++@  ++  ",
"   .@#$++++ %%  ",
"  $$@     @$&*  ",
" #.         ==  ",
"++          -=  ",
"@@          @*  ",
"$.          &;  ",
"$.          %%  ",
"$.          *@  ",
"$.         .>@  ",
"++         @%@  ",
"@@         #$.  ",
" #        @@$. @",
" ++       +@$. +",
" .$ ....@$@ @@,$",
"  @*$$$$@.   #; "};
