/* XPM */
static char * a16_xpm[] = {
"16 16 12 1",
" 	c #FFFFFF",
".	c #C9C9C9",
"+	c #A8A8A8",
"@	c #939393",
"#	c #D7D7D7",
"$	c #555555",
"%	c #B8B8B8",
"&	c #EAEAEA",
"*	c #616161",
"=	c #747474",
"-	c #878787",
";	c #9E9E9E",
"   .+++  @      ",
"  +.  #+ $      ",
" .%     .$      ",
"&+      .$      ",
"+&      &*      ",
"+       .=      ",
".       .=      ",
".       .=      ",
"&       +-      ",
"&       @@      ",
"&      &+@    ..",
".      ;;@    ;;",
".      @ +&   ..",
"..    ;  ..   ..",
" @+ &+;  ..   ;.",
"  %=+&    @..+. "};
