/* XPM */
static char * aa02_xpm[] = {
"16 16 17 1",
" 	c #FFFFFF",
".	c #939393",
"+	c #EAEAEA",
"@	c #A8A8A8",
"#	c #C9C9C9",
"$	c #9E9E9E",
"%	c #E4E4E4",
"&	c #A5A5A5",
"*	c #848484",
"=	c #B4B4B4",
"-	c #747474",
";	c #9A9A9A",
">	c #7D7D7D",
",	c #ECECEC",
"'	c #FCFCFC",
")	c #BBBBBB",
"!	c #929292",
"       .        ",
"       .        ",
"      +@        ",
"      +@        ",
"      +@        ",
"                ",
"                ",
"     ###+ $$    ",
"   +.###@%&*    ",
"   @     %=-    ",
"  ##      @;+   ",
"  ##      .##   ",
"   .     ####   ",
"    #    . ##  #",
"    >$ +@  +@,'.",
"    +*#$    .)!#"};
