/* XPM */
static char * aa03_xpm[] = {
"16 16 14 1",
" 	c #FFFFFF",
".	c #C9C9C9",
"+	c #EAEAEA",
"@	c #9E9E9E",
"#	c #D4D4D4",
"$	c #C0C0C0",
"%	c #747474",
"&	c #A8A8A8",
"*	c #979797",
"=	c #878787",
"-	c #B8B8B8",
";	c #848484",
">	c #939393",
",	c #919191",
"        ..      ",
"        ..      ",
"        ..      ",
"        ..      ",
"        ..      ",
"                ",
"                ",
"      +..@#$%   ",
"    .&&..@#*@   ",
"    .+     =&   ",
"   +&      =&   ",
"   ..     .-&   ",
"   ..     .-&   ",
"   +;     >+& +&",
"    .&@+  >+&@& ",
"     +@&>>  &,+ "};
