/* XPM */
static char * aa06_xpm[] = {
"16 16 14 1",
" 	c #FFFFFF",
".	c #C9C9C9",
"+	c #A8A8A8",
"@	c #939393",
"#	c #9E9E9E",
"$	c #EAEAEA",
"%	c #686868",
"&	c #616161",
"*	c #B8B8B8",
"=	c #D7D7D7",
"-	c #6F6F6F",
";	c #9A9A9A",
">	c #7D7D7D",
",	c #848484",
"      ..        ",
"      ..        ",
"      ..        ",
"      ..        ",
"                ",
"                ",
"         .      ",
"     .+@@#.     ",
"    ..$ $%#     ",
"   +.   $&      ",
"  .*    =-      ",
" $+     ;;      ",
"  .>$  **+   ;$ ",
"   #++.+$+$$*,  ",
"     $.   +++   ",
"                "};
