/* XPM */
static char * aa07_xpm[] = {
"16 16 13 1",
" 	c #FFFFFF",
".	c #C9C9C9",
"+	c #9E9E9E",
"@	c #EAEAEA",
"#	c #A8A8A8",
"$	c #939393",
"%	c #686868",
"&	c #919191",
"*	c #848484",
"=	c #B8B8B8",
"-	c #4C4C4C",
";	c #A9A9A9",
">	c #D7D7D7",
"     ..         ",
"     ++         ",
"     @#         ",
"      $         ",
"     @#         ",
"                ",
"         #@     ",
"   .###.@%&     ",
"  #.@@@.*%=     ",
" +&      %&     ",
" ..      -@     ",
" #@     ;%      ",
" #@     *.      ",
" ..    $..      ",
" @#. .$ .. @#   ",
"  .+$.  #>##@   "};
