/* XPM */
static char * aa11_xpm[] = {
"16 16 14 1",
" 	c #FFFFFF",
".	c #A8A8A8",
"+	c #EAEAEA",
"@	c #9E9E9E",
"#	c #C9C9C9",
"$	c #848484",
"%	c #939393",
"&	c #D4D4D4",
"*	c #B8B8B8",
"=	c #F4F4F4",
"-	c #7D7D7D",
";	c #5B5B5B",
">	c #9A9A9A",
",	c #D7D7D7",
"       .+       ",
"      @#        ",
"     +$         ",
"                ",
"                ",
"     ++++  %    ",
"   #.....&&$*   ",
"  ##+    ==@@   ",
" @-        $*   ",
" %         ;@   ",
"+.        +>.   ",
"+.        #*.   ",
" .+       .+.  #",
" +.#    ,.+ %  %",
"   ##+ #.   % +.",
"    #.%#    %%# "};
