/* XPM */
static char * aa14_xpm[] = {
"16 16 13 1",
" 	c #FFFFFF",
".	c #ECECEC",
"+	c #BBBBBB",
"@	c #919191",
"#	c #C9C9C9",
"$	c #EAEAEA",
"%	c #A8A8A8",
"&	c #484848",
"*	c #7D7D7D",
"=	c #B8B8B8",
"-	c #848484",
";	c #939393",
">	c #9E9E9E",
"    .+          ",
"    @.          ",
"   ##           ",
"                ",
"                ",
"                ",
"   #####        ",
" $%###&*        ",
" %$   =-        ",
"%$    ;;        ",
"%    $%%$       ",
"%    ##%$       ",
"%   ## ##   ;   ",
"%$ $%  ##  ##   ",
">> ;   $% >%    ",
" ;;     ;;>$    "};
