/* XPM */
static char * aa17_xpm[] = {
"16 16 15 1",
" 	c #FFFFFF",
".	c #A7A7A7",
"+	c #A8A8A8",
"@	c #EAEAEA",
"#	c #C9C9C9",
"$	c #939393",
"%	c #7D7D7D",
"&	c #7B7B7B",
"*	c #909090",
"=	c #616161",
"-	c #9E9E9E",
";	c #9A9A9A",
">	c #848484",
",	c #B8B8B8",
"'	c #747474",
"      ..        ",
"     +@         ",
"    +@          ",
"   ##           ",
"                ",
"                ",
"   @##$$%&      ",
"  #+##  *=      ",
" #-     ;;      ",
" +@     >,      ",
" $      '#      ",
"@+     #>@      ",
"@+    #$+@     #",
"@+  @## +@    ##",
" $#++#  +@  @$# ",
"  #@    ##+$+   "};
