/* XPM */
static char * b00_xpm[] = {
"16 16 16 1",
" 	c #FFFFFF",
".	c #C9C9C9",
"+	c #A8A8A8",
"@	c #848484",
"#	c #EAEAEA",
"$	c #9A9A9A",
"%	c #939393",
"&	c #B8B8B8",
"*	c #878787",
"=	c #5F5F5F",
"-	c #7D7D7D",
";	c #686868",
">	c #9E9E9E",
",	c #D1D1D1",
"'	c #969696",
")	c #E4E4E4",
"      ..        ",
"     +.@#       ",
"     $#%        ",
"    &@#+        ",
"    ..*+        ",
"    .=&     .   ",
"    -;    #$&   ",
"  #%->   +$+    ",
",'+ ..   +#     ",
"))   %   %      ",
"     +# >>      ",
"      %.%       ",
"       .        ",
"                ",
"                ",
"                "};
