/* XPM */
static char * b04_xpm[] = {
"16 16 14 1",
" 	c #FFFFFF",
".	c #A8A8A8",
"+	c #C9C9C9",
"@	c #EAEAEA",
"#	c #9A9A9A",
"$	c #686868",
"%	c #9E9E9E",
"&	c #939393",
"*	c #B8B8B8",
"=	c #747474",
"-	c #797979",
";	c #848484",
">	c #BBBBBB",
",	c #ECECEC",
"     ..++       ",
"    @#@+$@      ",
"   @.   %+      ",
"    .@  ++      ",
"    &   ++      ",
"    &   ++      ",
"    &   $*      ",
"    & +&+       ",
"    &++     @.  ",
"   +=+   @- ;*  ",
" +%;%+    $=&   ",
">+%@.@    @.    ",
",   @.    @.    ",
"     %%    &    ",
"     ++   ;*    ",
"      ++++&     "};
