/* XPM */
static char * b05_xpm[] = {
"16 16 18 1",
" 	c #FFFFFF",
".	c #A8A8A8",
"+	c #939393",
"@	c #C9C9C9",
"#	c #797979",
"$	c #EAEAEA",
"%	c #B8B8B8",
"&	c #848484",
"*	c #747474",
"=	c #6A6A6A",
"-	c #9E9E9E",
";	c #4C4C4C",
">	c #E4E4E4",
",	c #969696",
"'	c #D7D7D7",
")	c #D1D1D1",
"!	c #7D7D7D",
"~	c #9A9A9A",
"    .+.@        ",
"   @#$$%.       ",
"   @@   @@      ",
"   .$   @@      ",
"   .$   @@      ",
"   +   $&       ",
"   + $*.@       ",
"   =-.@$        ",
"  -;@       .$  ",
">,@+   @@@$'.   ",
">)$.   @!-..    ",
"  $.   @-       ",
"  $.  $&        ",
"  $.  ~%        ",
"   .%$.         ",
"    -&          "};
