/* XPM */
static char * b11_xpm[] = {
"16 16 14 1",
" 	c #FFFFFF",
".	c #9E9E9E",
"+	c #A8A8A8",
"@	c #EAEAEA",
"#	c #939393",
"$	c #C9C9C9",
"%	c #ECECEC",
"&	c #9D9D9D",
"*	c #BBBBBB",
"=	c #747474",
"-	c #7D7D7D",
";	c #848484",
">	c #9A9A9A",
",	c #6F6F6F",
"      .+@       ",
"     #.@+#      ",
"    +@   #      ",
"   $$   ..      ",
"   $$   #       ",
"   $$  +@       ",
"   $$ +         ",
"  %&.#@     @   ",
"  *=-    @@;>   ",
"   $$   #,>$    ",
"   +@    ..     ",
"   +@    ..     ",
"   +@    ;@     ",
"   $.  @.$      ",
"    .$$+.       ",
"      $         "};
