/* XPM */
static char * b14_xpm[] = {
"16 16 12 1",
" 	c #FFFFFF",
".	c #C9C9C9",
"+	c #939393",
"@	c #A8A8A8",
"#	c #EAEAEA",
"$	c #848484",
"%	c #B8B8B8",
"&	c #D4D4D4",
"*	c #818181",
"=	c #747474",
"-	c #F4F4F4",
";	c #9E9E9E",
"                ",
"       .        ",
"      +.+       ",
"     .. +       ",
"     + ..       ",
"    .. @#       ",
"    ..#@        ",
"    ..@#        ",
"    #$   %$.@   ",
"   &*$   .=.#   ",
"   &-+    +     ",
"     +   ..     ",
"     @#  $%     ",
"      + ;.      ",
"      ...       ",
"                "};
