/* XPM */
static char * b16_xpm[] = {
"16 16 12 1",
" 	c #FFFFFF",
".	c #A8A8A8",
"+	c #B8B8B8",
"@	c #C9C9C9",
"#	c #747474",
"$	c #EAEAEA",
"%	c #686868",
"&	c #939393",
"*	c #9E9E9E",
"=	c #E4E4E4",
"-	c #6F6F6F",
";	c #9A9A9A",
"       .+       ",
"     @#$%@      ",
"     &   @@     ",
"    $.   @@     ",
"    @@   @@     ",
"    @@   &      ",
"    @@   &      ",
"    @@ **   $$$$",
"    @@&   ==-;..",
"    +#    ==@@  ",
"   @;.      .$  ",
"  &@$.      .$  ",
"     &      &   ",
"     .$    +@   ",
"     **  $*.    ",
"      .;&.*     "};
