/* XPM */
static char * b17_xpm[] = {
"16 16 12 1",
" 	c #FFFFFF",
".	c #9E9E9E",
"+	c #A8A8A8",
"@	c #939393",
"#	c #EAEAEA",
"$	c #C9C9C9",
"%	c #D7D7D7",
"&	c #616161",
"*	c #9A9A9A",
"=	c #747474",
"-	c #848484",
";	c #B8B8B8",
"    .+          ",
"   @.#..        ",
"  $$  $$        ",
"  +#  #+        ",
"  +#  #+        ",
"  +#  #+        ",
"  +# %+         ",
"  +%++          ",
" $&*#    =$$-   ",
"@$+#    @=$$;   ",
"  +#     @      ",
"  +#     @      ",
"  $$    $$      ",
"   @    @       ",
"   ..  .$       ",
"    +;+$        "};
