/* XPM */
static char * c00_xpm[] = {
"16 16 6 1",
" 	c #FFFFFF",
".	c #EAEAEA",
"+	c #C9C9C9",
"@	c #939393",
"#	c #A8A8A8",
"$	c #848484",
"                ",
"                ",
"   .+@@@#+.     ",
"   #+   .+#+    ",
"  ++       ++   ",
"  @         +   ",
"  @             ",
"  @             ",
"  @             ",
"  @             ",
"  #.            ",
"  ++       #.   ",
"   +$     .#    ",
"    .@+++@#.    ",
"      +++       ",
"                "};
