/* XPM */
static char * c06_xpm[] = {
"16 16 10 1",
" 	c #FFFFFF",
".	c #C9C9C9",
"+	c #EAEAEA",
"@	c #A8A8A8",
"#	c #939393",
"$	c #9E9E9E",
"%	c #7D7D7D",
"&	c #D4D4D4",
"*	c #F4F4F4",
"=	c #B8B8B8",
"                ",
"    ..+         ",
"   ...@#@       ",
"  .$    +.%     ",
" +@       %.    ",
" ..        &&   ",
" ..        **   ",
" ..             ",
" ..             ",
" ..             ",
" ..             ",
"  @+       @+   ",
"   @=     $$    ",
"    .@++ +#     ",
"     +@@#@      ",
"                "};
