/* XPM */
static char * c16_xpm[] = {
"16 16 9 1",
" 	c #FFFFFF",
".	c #EAEAEA",
"+	c #9E9E9E",
"@	c #C9C9C9",
"#	c #A7A7A7",
"$	c #F4F4F4",
"%	c #A8A8A8",
"&	c #B8B8B8",
"*	c #939393",
"    ...+@@@#$   ",
"   %%%%+@@@#$   ",
"  @&            ",
"  *             ",
"  *             ",
" @@             ",
" %.             ",
" *              ",
" *              ",
" @@             ",
" @@             ",
" @@             ",
"  *        @@   ",
"  @@       +@   ",
"   %.    +%@    ",
"    *@@@*+.     "};
