/* XPM */
static char * c17_xpm[] = {
"16 16 9 1",
" 	c #FFFFFF",
".	c #EAEAEA",
"+	c #C9C9C9",
"@	c #A8A8A8",
"#	c #939393",
"$	c #A7A7A7",
"%	c #F4F4F4",
"&	c #9E9E9E",
"*	c #D7D7D7",
"                ",
"      .+@#@$%   ",
"   .+@@+. .$%   ",
"   @+.          ",
" ++             ",
" @.             ",
" @.             ",
" @.             ",
" @.             ",
" @.             ",
" @.             ",
" ++             ",
" &&             ",
"  @*      ..    ",
"   @& .++#@@    ",
"    &#@++       "};
