/* XPM */
static char * d00_xpm[] = {
"16 16 14 1",
" 	c #FFFFFF",
".	c #939393",
"+	c #555555",
"@	c #EAEAEA",
"#	c #616161",
"$	c #B8B8B8",
"%	c #848484",
"&	c #9E9E9E",
"*	c #A8A8A8",
"=	c #5B5B5B",
"-	c #7D7D7D",
";	c #C9C9C9",
">	c #747474",
",	c #D7D7D7",
"                ",
"          .     ",
"          +     ",
"          +     ",
"         @#     ",
"         $%     ",
"     &*..=&     ",
"    .&@  --     ",
"   ;;    ;>     ",
"  @*     $%     ",
"  ;;     .*@  . ",
"   .     .;; ;; ",
"   &&@  $; *,;  ",
"     *.**   *;  ",
"       @        ",
"                "};
