/* XPM */
static char * d03_xpm[] = {
"16 16 16 1",
" 	c #FFFFFF",
".	c #A8A8A8",
"+	c #EAEAEA",
"@	c #C9C9C9",
"#	c #747474",
"$	c #9E9E9E",
"%	c #848484",
"&	c #E4E4E4",
"*	c #B4B4B4",
"=	c #969696",
"-	c #878787",
";	c #D7D7D7",
">	c #686868",
",	c #919191",
"'	c #616161",
")	c #939393",
"           .+   ",
"          @#    ",
"         @$@    ",
"         @%+    ",
"         #@     ",
"        @$@     ",
"    @@@&*%+     ",
"   .@@@&=-      ",
"  .;    >,      ",
" $$     '+    .+",
" )     @%+   +. ",
" $$  +@.$$   .+ ",
"  @#).@+ @$@,@  ",
"          @@%   ",
"                ",
"                "};
