/* XPM */
static char * d07_xpm[] = {
"16 16 17 1",
" 	c #FFFFFF",
".	c #939393",
"+	c #EAEAEA",
"@	c #616161",
"#	c #7D7D7D",
"$	c #9E9E9E",
"%	c #6F6F6F",
"&	c #C9C9C9",
"*	c #9B9B9B",
"=	c #ACACAC",
"-	c #E7E7E7",
";	c #8E8E8E",
">	c #9A9A9A",
",	c #747474",
"'	c #686868",
")	c #A8A8A8",
"!	c #919191",
"                ",
"          .     ",
"         +@     ",
"         ##     ",
"         $$     ",
"         @+     ",
"        +%+     ",
"    &..*=@      ",
"   &$  -;>      ",
"   .    ,&      ",
"  $$   $'+      ",
"  )+   .)+      ",
"  )+  $$)+ &&   ",
"  $$ +) )+ !$   ",
"   &,.   . )    ",
"          )+    "};
