/* XPM */
static char * d13_xpm[] = {
"16 16 15 1",
" 	c #FFFFFF",
".	c #ECECEC",
"+	c #BBBBBB",
"@	c #E7E7E7",
"#	c #9B9B9B",
"$	c #C9C9C9",
"%	c #A8A8A8",
"&	c #EAEAEA",
"*	c #939393",
"=	c #686868",
"-	c #E4E4E4",
";	c #848484",
">	c #B8B8B8",
",	c #9E9E9E",
"'	c #797979",
"        .+      ",
"        @#      ",
"        $$      ",
"        $$      ",
"        %&      ",
"        %&      ",
"        *       ",
"     &$$=-      ",
"  ;%*%$$=-      ",
" $>&    $$      ",
" ;&     ,,      ",
" %&     $$      ",
" %&     &%      ",
" $$     &%      ",
"  $;&   &'& *   ",
"   &%%%%%;%**   "};
