/* XPM */
static char * d15_xpm[] = {
"16 16 13 1",
" 	c #FFFFFF",
".	c #939393",
"+	c #C9C9C9",
"@	c #747474",
"#	c #A8A8A8",
"$	c #9A9A9A",
"%	c #EAEAEA",
"&	c #D7D7D7",
"*	c #848484",
"=	c #9E9E9E",
"-	c #656565",
";	c #6F6F6F",
">	c #B8B8B8",
"           .    ",
"          +@    ",
"          +@    ",
"          #$%   ",
"          #$%   ",
"         %##%   ",
"      %  %#.    ",
"    %+#. %#.    ",
"   +#+  #&*+    ",
"  +=     $-%    ",
" ++      &;   ++",
" .       $$   ++",
"++      %$#   #%",
"++      #&#  %. ",
" #>++++*+ +++#  ",
"  +++++%    +   "};
