/* XPM */
static char * d17_xpm[] = {
"16 16 37 1",
" 	c #FFFFFF",
".	c #939393",
"+	c #BABABA",
"@	c #606060",
"#	c #8F8F8F",
"$	c #848484",
"%	c #B8B8B8",
"&	c #6F6F6F",
"*	c #D7D7D7",
"=	c #616161",
"-	c #EAEAEA",
";	c #C9C9C9",
">	c #7D7D7D",
",	c #9E9E9E",
"'	c #F4F4F4",
")	c #8C8C8C",
"!	c #7A7A7A",
"~	c #888888",
"{	c #A8A8A8",
"]	c #E0E0E0",
"^	c #808080",
"/	c #B6B6B6",
"(	c #ABABAB",
"_	c #9B9B9B",
":	c #E7E7E7",
"<	c #9A9A9A",
"[	c #6C6C6C",
"}	c #ECECEC",
"|	c #878787",
"1	c #797979",
"2	c #E4E4E4",
"3	c #6A6A6A",
"4	c #484848",
"5	c #686868",
"6	c #747474",
"7	c #515151",
"8	c #B4B4B4",
"        .+      ",
"        @#      ",
"        $%      ",
"        &*      ",
"        =-      ",
"       -&-      ",
"       ;>,      ",
"       ;,;      ",
"   ')..!~{      ",
"   ]^  /({      ",
"   ,,  ;,;      ",
"   _:   <<      ",
"   [}   |{      ",
"   11   |$  22  ",
"    $3$,|45678  ",
"    ;;%,{;%;;   "};
