/* XPM */
static char * e01_xpm[] = {
"16 16 11 1",
" 	c #FFFFFF",
".	c #EAEAEA",
"+	c #939393",
"@	c #9E9E9E",
"#	c #A8A8A8",
"$	c #919191",
"%	c #D7D7D7",
"&	c #7D7D7D",
"*	c #C9C9C9",
"=	c #747474",
"-	c #848484",
"                ",
"                ",
"                ",
"     .++@       ",
"    ##  $#      ",
"   #%    @@     ",
"  .#     &@     ",
"  #.  .@#*      ",
" .#*=+#@.       ",
" .#             ",
"  +             ",
"  **            ",
"   *@     &@    ",
"    @-***+*     ",
"     .***       ",
"                "};
