/* XPM */
static char * e06_xpm[] = {
"16 16 12 1",
" 	c #FFFFFF",
".	c #EAEAEA",
"+	c #C9C9C9",
"@	c #939393",
"#	c #878787",
"$	c #A8A8A8",
"%	c #9E9E9E",
"&	c #747474",
"*	c #D1D1D1",
"=	c #777777",
"-	c #E4E4E4",
";	c #B8B8B8",
"                ",
"      .++@@@#$  ",
"    +$$++    .$ ",
"    +.        $.",
"   $.         ++",
"  %%          ++",
"  $.          & ",
" ++         .$+ ",
" $.       %$$.  ",
"++   .++$@%.    ",
"*=+$@$++.       ",
"-=;.            ",
"  @%          . ",
"   %$+++....$@$ ",
"    .+++$$$$.   ",
"                "};
