/* XPM */
static char * ee00_xpm[] = {
"16 16 11 1",
" 	c #FFFFFF",
".	c #C9C9C9",
"+	c #B8B8B8",
"@	c #848484",
"#	c #EAEAEA",
"$	c #A8A8A8",
"%	c #7D7D7D",
"&	c #9E9E9E",
"*	c #939393",
"=	c #919191",
"-	c #C0C0C0",
"      ..        ",
"     +@         ",
"     ..         ",
"                ",
"                ",
"    #..         ",
"    $...        ",
"  #$   %&       ",
"  *    =&       ",
" #$   +$        ",
" .@-&*@         ",
" .@-&           ",
"  *#      $#    ",
"   $&   .$      ",
"    &$.$.#      ",
"     #.#        "};
