/* XPM */
static char * ee02_xpm[] = {
"16 16 16 1",
" 	c #FFFFFF",
".	c #BBBBBB",
"+	c #ECECEC",
"@	c #C9C9C9",
"#	c #BABABA",
"$	c #FCFCFC",
"%	c #F4F4F4",
"&	c #6F6F6F",
"*	c #D4D4D4",
"=	c #EAEAEA",
"-	c #9E9E9E",
";	c #A8A8A8",
">	c #A6A6A6",
",	c #D9D9D9",
"'	c #939393",
")	c #747474",
"       .+       ",
"      @#$       ",
"     %&@        ",
"     **         ",
"                ",
"     =--@       ",
"    @;--@@@     ",
"   @@    @@     ",
"  @-    =-      ",
"  >,@@;';-      ",
"  #'@@=         ",
"  @@            ",
"  =;        @@  ",
"   ;=      =;   ",
"   --      ;=   ",
"    @);;;;)@    "};
