/* XPM */
static char * ee03_xpm[] = {
"16 16 12 1",
" 	c #FFFFFF",
".	c #BBBBBB",
"+	c #ECECEC",
"@	c #A8A8A8",
"#	c #EAEAEA",
"$	c #747474",
"%	c #C9C9C9",
"&	c #939393",
"*	c #D7D7D7",
"=	c #848484",
"-	c #9A9A9A",
";	c #9E9E9E",
"       .+       ",
"      @#        ",
"     $%         ",
"                ",
"                ",
"    #%&@@%      ",
"    @% #*=      ",
"  #@    #@      ",
"  %%     &      ",
"  @# #%%=%      ",
"  @-@@%%#       ",
"  @*#           ",
"  ;;     %      ",
"  %%   #%%      ",
"   %=%@@%       ",
"    #%#         "};
