/* XPM */
static char * ee06_xpm[] = {
"16 16 13 1",
" 	c #FFFFFF",
".	c #BBBBBB",
"+	c #ECECEC",
"@	c #A8A8A8",
"#	c #D9D9D9",
"$	c #FCFCFC",
"%	c #9E9E9E",
"&	c #B8B8B8",
"*	c #C9C9C9",
"=	c #EAEAEA",
"-	c #939393",
";	c #848484",
">	c #878787",
"        .+      ",
"       @#$      ",
"      @         ",
"     %&         ",
"    *%          ",
"        =       ",
"      *-;*      ",
"     -*  @=     ",
"   =@    **     ",
"   -   =*-      ",
"  **  *@*       ",
"  -@>-*         ",
"  @=            ",
"  **       %%   ",
"  =@=      %*   ",
"    @@-@**@*    "};
