/* XPM */
static char * f00_xpm[] = {
"16 16 15 1",
" 	c #FFFFFF",
".	c #878787",
"+	c #9A9A9A",
"@	c #9E9E9E",
"#	c #C9C9C9",
"$	c #848484",
"%	c #EAEAEA",
"&	c #B8B8B8",
"*	c #A8A8A8",
"=	c #939393",
"-	c #747474",
";	c #7D7D7D",
">	c #D4D4D4",
",	c #7A7A7A",
"'	c #F4F4F4",
"                ",
"        .+      ",
"      @# $#     ",
"     %$  @@     ",
"     $&  $%     ",
"     *% #@      ",
"     = &*       ",
"     -=#        ",
"   #=-          ",
"   # *%         ",
"     @@  #*     ",
"    #;@*=#%     ",
"  >,#;@%        ",
"  '' %*         ",
"     %*         ",
"      =         "};
