/* XPM */
static char * f01_xpm[] = {
"16 16 12 1",
" 	c #FFFFFF",
".	c #C9C9C9",
"+	c #747474",
"@	c #9E9E9E",
"#	c #939393",
"$	c #EAEAEA",
"%	c #A8A8A8",
"&	c #616161",
"*	c #D4D4D4",
"=	c #A1A1A1",
"-	c #878787",
";	c #F4F4F4",
"       ..+.     ",
"      .@   #    ",
"     $%    #    ",
"      %$  @@    ",
"      #   #     ",
"      # .#      ",
"      #.@       ",
"     $&         ",
"    *=-         ",
"    *;#         ",
"      #         ",
" ;*$$$-$$$$..   ",
" ;*%%%&%%%%..   ",
"      #         ",
"      #         ",
"      #         "};
