/* XPM */
static char * f02_xpm[] = {
"16 16 15 1",
" 	c #FFFFFF",
".	c #C9C9C9",
"+	c #A8A8A8",
"@	c #747474",
"#	c #9E9E9E",
"$	c #EAEAEA",
"%	c #939393",
"&	c #B8B8B8",
"*	c #D4D4D4",
"=	c #7F7F7F",
"-	c #848484",
";	c #B1B1B1",
">	c #F4F4F4",
",	c #A7A7A7",
"'	c #9A9A9A",
"      .+@.      ",
"     .#$ ..     ",
"     %   +$     ",
"     %  $+      ",
"    $+ $%       ",
"    .&++        ",
"   *=-$         ",
"   *;.          ",
"    ..          ",
"    ..   $.     ",
"  >,'-+%%+.     ",
"  >,$@$         ",
"     +$         ",
"     +$         ",
"     +$         ",
"                "};
