/* XPM */
static char * f06_xpm[] = {
"16 16 11 1",
" 	c #FFFFFF",
".	c #939393",
"+	c #C9C9C9",
"@	c #A8A8A8",
"#	c #EAEAEA",
"$	c #9E9E9E",
"%	c #D7D7D7",
"&	c #848484",
"*	c #D4D4D4",
"=	c #C0C0C0",
"-	c #E4E4E4",
"                ",
"       .+++     ",
"      @#++$+    ",
"     ++   $$    ",
"     .    @#    ",
"    ++   ++     ",
"    ++  @#      ",
"    @%+.        ",
"   #$&+         ",
" *=@$+          ",
" *= $$          ",
"    ++          ",
"--++$$++++++    ",
"--++$$++++++    ",
"    ++          ",
"    ++          "};
