/* XPM */
static char * f12_xpm[] = {
"16 16 15 1",
" 	c #FFFFFF",
".	c #C9C9C9",
"+	c #A8A8A8",
"@	c #939393",
"#	c #B8B8B8",
"$	c #747474",
"%	c #EAEAEA",
"&	c #848484",
"*	c #BBBBBB",
"=	c #7A7A7A",
"-	c #ECECEC",
";	c #C7C7C7",
">	c #9B9B9B",
",	c #9E9E9E",
"'	c #E7E7E7",
"       ..       ",
"    .+@.#+      ",
"    $%   ..     ",
"   %+    ..     ",
"   %+   %+      ",
"   ..  %@       ",
"   ..%.+        ",
"   #&+.         ",
"  *=#           ",
"  -;.           ",
"   ..           ",
" *>,,...+@@     ",
" -',,...%       ",
"   ..           ",
"   %+           ",
"   %+           "};
