/* XPM */
static char * f17_xpm[] = {
"16 16 14 1",
" 	c #FFFFFF",
".	c #A8A8A8",
"+	c #EAEAEA",
"@	c #C9C9C9",
"#	c #B8B8B8",
"$	c #7D7D7D",
"%	c #9E9E9E",
"&	c #848484",
"*	c #939393",
"=	c #9A9A9A",
"-	c #F4F4F4",
";	c #D4D4D4",
">	c #878787",
",	c #6F6F6F",
"       ....+    ",
"      @#  @@    ",
"      @@  @@    ",
"      @@  @@    ",
"      @@  .+    ",
"      @@ $@     ",
"      @#@%      ",
"     +%&@       ",
"    +.%@        ",
"   *. .+     +  ",
"      .+   @@.  ",
"      =#..*@@   ",
" -;@.>,@++      ",
" -;@+@@         ",
"     #@         ",
"     &@         "};
