/* XPM */
static char * g00_xpm[] = {
"16 16 13 1",
" 	c #FFFFFF",
".	c #C9C9C9",
"+	c #9E9E9E",
"@	c #EAEAEA",
"#	c #848484",
"$	c #939393",
"%	c #C7C7C7",
"&	c #878787",
"*	c #7B7B7B",
"=	c #919191",
"-	c #686868",
";	c #A8A8A8",
">	c #747474",
"                ",
"                ",
"      .+@       ",
"     ..+#$%     ",
"    .+   &*     ",
"    ..   =-  @  ",
"    @;@  &; .#  ",
"      ;;=+.@;   ",
"       @#.+$    ",
"        +>+     ",
"      @;+..     ",
"     .;@ ..     ",
"    .+   ..     ",
"    ..   ..     ",
"     .+@@..     ",
"      .;;$      "};
