/* XPM */
static char * g01_xpm[] = {
"16 16 14 1",
" 	c #FFFFFF",
".	c #A8A8A8",
"+	c #939393",
"@	c #EAEAEA",
"#	c #D4D4D4",
"$	c #7A7A7A",
"%	c #949494",
"&	c #9E9E9E",
"*	c #C9C9C9",
"=	c #848484",
"-	c #B8B8B8",
";	c #7D7D7D",
">	c #D7D7D7",
",	c #686868",
"                ",
"                ",
"     ...        ",
"    +@@@#$      ",
"  @.    %%      ",
"  &&   +@.      ",
"  &&@  +** @=   ",
"   *=++ ** -&   ",
"        **&=    ",
"        ;=*     ",
"      >.;-      ",
"     -. **      ",
"    *,  **      ",
"    &;  **      ",
"     *@ .@      ",
"      ..+       "};
