/* XPM */
static char * g04_xpm[] = {
"16 16 16 1",
" 	c #FFFFFF",
".	c #EAEAEA",
"+	c #C9C9C9",
"@	c #B8B8B8",
"#	c #A8A8A8",
"$	c #848484",
"%	c #E4E4E4",
"&	c #939393",
"*	c #B4B4B4",
"=	c #D7D7D7",
"-	c #6F6F6F",
";	c #797979",
">	c #9E9E9E",
",	c #7D7D7D",
"'	c #9A9A9A",
")	c #686868",
"                ",
"                ",
"     .+@        ",
"     #+$%%      ",
"    &   **      ",
"   #.   =-      ",
"   &    ;;  ++  ",
"   >,++#.#  #.  ",
"    +++..#.&    ",
"        @-#     ",
"     @#&@'      ",
"    +). .#      ",
"    &   .#      ",
"    #=  ++      ",
"     ##.>>      ",
"      .##.      "};
