/* XPM */
static char * g16_xpm[] = {
"16 16 15 1",
" 	c #FFFFFF",
".	c #EAEAEA",
"+	c #9E9E9E",
"@	c #939393",
"#	c #C9C9C9",
"$	c #A8A8A8",
"%	c #636363",
"&	c #7D7D7D",
"*	c #686868",
"=	c #B8B8B8",
"-	c #9A9A9A",
";	c #848484",
">	c #747474",
",	c #616161",
"'	c #919191",
"     .+@##.##   ",
"    $$+ ##$%&   ",
"   $.      *=   ",
"  .-       ;=   ",
"  ##       >#   ",
"   @      +*.   ",
"   .$#####@$. .#",
"     ##### $.+$#",
"          .,@+  ",
"       .+#--    ",
"     @@$+#.$    ",
"    @     .$    ",
"   $.     .$    ",
"    $    .$.    ",
"    .$'#;$      ",
"      +#=       "};
