/* XPM */
static char * h00_xpm[] = {
"16 16 14 1",
" 	c #FFFFFF",
".	c #9E9E9E",
"+	c #A8A8A8",
"@	c #EAEAEA",
"#	c #C9C9C9",
"$	c #848484",
"%	c #939393",
"&	c #878787",
"*	c #6F6F6F",
"=	c #D7D7D7",
"-	c #E4E4E4",
";	c #969696",
">	c #B8B8B8",
",	c #9A9A9A",
"      .+@       ",
"     #.##       ",
"    @$ @$       ",
"    %  ..       ",
"    % +#        ",
"    &+@         ",
"   #*=  @       ",
" -;>+@ %++      ",
" -- +=+  ,>     ",
"    +,@  #.     ",
"    ,,   ..   % ",
"    $>   ##   % ",
"    $>   >$  +  ",
"    *=    ..#@  ",
"    +@      #   ",
"                "};
