/* XPM */
static char * h01_xpm[] = {
"16 16 12 1",
" 	c #FFFFFF",
".	c #C9C9C9",
"+	c #EAEAEA",
"@	c #9A9A9A",
"#	c #A8A8A8",
"$	c #9E9E9E",
"%	c #939393",
"&	c #B8B8B8",
"*	c #6F6F6F",
"=	c #747474",
"-	c #D7D7D7",
";	c #848484",
"      .+        ",
"     ..@#       ",
"    .$  #+      ",
"    %  +%       ",
"   +# .#        ",
"   +#$.         ",
"   &*$   +      ",
" +#&@  #%#      ",
" #+ %+#+ %      ",
"    %#+  #+     ",
"    =.   %  ..  ",
"   .=    % -#   ",
"   &;    ..#    ",
"   ..    .;     ",
"          +     ",
"                "};
