/* XPM */
static char * h05_xpm[] = {
"16 16 15 1",
" 	c #FFFFFF",
".	c #9E9E9E",
"+	c #A8A8A8",
"@	c #C9C9C9",
"#	c #EAEAEA",
"$	c #939393",
"%	c #7D7D7D",
"&	c #B8B8B8",
"*	c #848484",
"=	c #ECECEC",
"-	c #D7D7D7",
";	c #747474",
">	c #BBBBBB",
",	c #555555",
"'	c #919191",
"      .+.@      ",
"     @.##+      ",
"    @.  ..      ",
"    +#  $       ",
"    $  +#       ",
"   #+ %.        ",
"   #++&         ",
"   .*    #@     ",
"=@$*-  @;+@     ",
">@ $  +   +#    ",
"   $ $#   +#    ",
"  #+$     +#   $",
"  @%.    #+   @@",
"  ..     @@  #+ ",
"  ,      +'#%@  ",
"  $       .+.   "};
