/* XPM */
static char * h07_xpm[] = {
"16 16 12 1",
" 	c #FFFFFF",
".	c #EAEAEA",
"+	c #A8A8A8",
"@	c #939393",
"#	c #C9C9C9",
"$	c #B8B8B8",
"%	c #9E9E9E",
"&	c #D7D7D7",
"*	c #747474",
"=	c #848484",
"-	c #B4B4B4",
";	c #9A9A9A",
"       .+@      ",
"      #+.@      ",
"     +$ +.      ",
"    %% ##       ",
"    +.%%        ",
"    +&+         ",
"    *@          ",
"   $=     %+@   ",
"  +%#  .#@%$#   ",
"-@.## #+#  %%  .",
"-  @ #%    ##  #",
"  ####     @   @",
"  +$#     ##  ##",
" .;+      ## &+ ",
" #*       #%%+  ",
" ##       #%%   "};
