/* XPM */
static char * h10_xpm[] = {
"16 16 15 1",
" 	c #FFFFFF",
".	c #9A9A9A",
"+	c #848484",
"@	c #A8A8A8",
"#	c #D7D7D7",
"$	c #C9C9C9",
"%	c #B8B8B8",
"&	c #939393",
"*	c #9E9E9E",
"=	c #747474",
"-	c #D4D4D4",
";	c #EAEAEA",
">	c #F4F4F4",
",	c #5B5B5B",
"'	c #616161",
"      .+        ",
"     @#$@%      ",
"     &   *$     ",
"     &   **     ",
"     &   =      ",
"     &  $*      ",
"     =$&        ",
"   $&+%         ",
" --$ &  ;;;     ",
" >>  @#@@@@     ",
"     ..   &     ",
"     ,*   &     ",
"     ';   **  $$",
"    $=     &  @;",
"    %+     & *@ ",
"    $$     +%*; "};
