/* XPM */
static char * h11_xpm[] = {
"16 16 11 1",
" 	c #FFFFFF",
".	c #C9C9C9",
"+	c #A8A8A8",
"@	c #9E9E9E",
"#	c #939393",
"$	c #EAEAEA",
"%	c #919191",
"&	c #848484",
"*	c #B8B8B8",
"=	c #686868",
"-	c #747474",
"        .+@     ",
"       #.$%+    ",
"      ..   ..   ",
"      +$   +$   ",
"     $+    +$   ",
"     $+    #    ",
"     ..   @@    ",
"     ..  $+     ",
"     ..$.#      ",
"  $..&&+.       ",
"$++..**  @#     ",
"     .. .@ +$   ",
"     ..#.  +$   ",
"     %=    .. ..",
"     @@    @@.. ",
"     ..    ..-. "};
