/* XPM */
static char * h12_xpm[] = {
"16 16 15 1",
" 	c #FFFFFF",
".	c #939393",
"+	c #C9C9C9",
"@	c #B8B8B8",
"#	c #A8A8A8",
"$	c #EAEAEA",
"%	c #878787",
"&	c #747474",
"*	c #616161",
"=	c #9A9A9A",
"-	c #D7D7D7",
";	c #848484",
">	c #4C4C4C",
",	c #9E9E9E",
"'	c #7D7D7D",
"      ...+      ",
"     ++  @#     ",
"     ++  $#     ",
"     ++   .     ",
"     ++  $#     ",
"     #$ $#      ",
"     %++#$      ",
" +&..*++        ",
"    $#          ",
"    $#  $+##    ",
"    $# #=+-=    ",
"    $;#   $#    ",
"    $>$   $#    ",
"    ,,     .   +",
"    ''     +,+,#",
"    ++      ++,$"};
