/* XPM */
static char * h13_xpm[] = {
"16 16 15 1",
" 	c #FFFFFF",
".	c #848484",
"+	c #C9C9C9",
"@	c #939393",
"#	c #EAEAEA",
"$	c #B8B8B8",
"%	c #A8A8A8",
"&	c #747474",
"*	c #9E9E9E",
"=	c #7D7D7D",
"-	c #D7D7D7",
";	c #9A9A9A",
">	c #D4D4D4",
",	c #636363",
"'	c #919191",
"       .+       ",
"      @#+$      ",
"     @   .+     ",
"    #%    &     ",
"    #%   *+     ",
"    #%  +=      ",
"    #%#@        ",
"    -.%         ",
"  #%;.   +%+    ",
">%%##%  @+#&    ",
">#  #%#%  #%    ",
"    #;%   #%    ",
"    *,*   #%    ",
"    +&     %# =+",
"    ==     .'&* ",
"    ++      &+  "};
