/* XPM */
static char * h15_xpm[] = {
"16 16 11 1",
" 	c #FFFFFF",
".	c #C9C9C9",
"+	c #939393",
"@	c #EAEAEA",
"#	c #A8A8A8",
"$	c #9E9E9E",
"%	c #B8B8B8",
"&	c #616161",
"*	c #7D7D7D",
"=	c #5B5B5B",
"-	c #848484",
"     .+.        ",
"     . .+       ",
"    +   ..      ",
"   @#   $.      ",
"   @#  #%       ",
"   @#.+         ",
"   %&.          ",
" ..%#   ++      ",
"   @# @#  +     ",
"   @# +   ..    ",
"   ..#@   ..    ",
"   .*$    ..    ",
"   $=     .. @# ",
"   $$     +  @# ",
"   -%     +$.#  ",
"   #@      $.@  "};
