/* XPM */
static char * h16_xpm[] = {
"16 16 21 1",
" 	c #FFFFFF",
".	c #A8A8A8",
"+	c #9E9E9E",
"@	c #C9C9C9",
"#	c #D7D7D7",
"$	c #EAEAEA",
"%	c #B8B8B8",
"&	c #939393",
"*	c #9A9A9A",
"=	c #848484",
"-	c #747474",
";	c #919191",
">	c #6E6E6E",
",	c #4C4C4C",
"'	c #494949",
")	c #656565",
"!	c #7D7D7D",
"~	c #484848",
"{	c #8C8C8C",
"]	c #A1A1A1",
"^	c #B1B1B1",
"     ...+@      ",
"    .#$$+%.     ",
"    &    $.     ",
"   $.    @@     ",
"   $.    *$     ",
"   @@   +=      ",
"   @@@@&@       ",
" $+=-@@         ",
".*+%@     $$    ",
"   $.   $@..    ",
"   $. @..@$.    ",
"   &=;+$  @@    ",
"  $>,@    .$  & ",
"   ')     .$ %. ",
"   !~     &{]=$ ",
"   @-      *^   "};
