/* XPM */
static char * h17_xpm[] = {
"16 16 17 1",
" 	c #FFFFFF",
".	c #C9C9C9",
"+	c #939393",
"@	c #9E9E9E",
"#	c #7D7D7D",
"$	c #A8A8A8",
"%	c #EAEAEA",
"&	c #747474",
"*	c #848484",
"=	c #B8B8B8",
"-	c #9A9A9A",
";	c #919191",
">	c #5B5B5B",
",	c #E7E7E7",
"'	c #666666",
")	c #D9D9D9",
"!	c #7B7B7B",
"      .+.       ",
"     .@ #@      ",
"     $%  .&     ",
"     $%   +     ",
"     $%  @.     ",
"     ...$.      ",
"    %@*.%       ",
"  .+$=-         ",
"  .   +  @.$    ",
"      $%+@.;@   ",
"      +$%  %$   ",
"      >@    ..  ",
"     ,'%    @@  ",
"     )!     ..  ",
"     ..     %$.%",
"     ..      .@$"};
