/* XPM */
static char * i00_xpm[] = {
"16 16 12 1",
" 	c #FFFFFF",
".	c #EAEAEA",
"+	c #A8A8A8",
"@	c #939393",
"#	c #B8B8B8",
"$	c #9A9A9A",
"%	c #F4F4F4",
"&	c #B1B1B1",
"*	c #C9C9C9",
"=	c #D4D4D4",
"-	c #6E6E6E",
";	c #9E9E9E",
"                ",
"      .+        ",
"                ",
"                ",
"       @        ",
"     #$+        ",
"   %&*.+        ",
"   =- .+        ",
"      .+    @   ",
"      .+   .+   ",
"      .+   ;;   ",
"      .+  **    ",
"      .+ .+     ",
"        +$      ",
"         .      ",
"                "};
