/* XPM */
static char * i01_xpm[] = {
"16 16 13 1",
" 	c #FFFFFF",
".	c #BBBBBB",
"+	c #9B9B9B",
"@	c #ECECEC",
"#	c #E7E7E7",
"$	c #9E9E9E",
"%	c #C9C9C9",
"&	c #B8B8B8",
"*	c #A8A8A8",
"=	c #FCFCFC",
"-	c #EAEAEA",
";	c #939393",
">	c #9A9A9A",
"                ",
"      .+        ",
"      @#        ",
"                ",
"                ",
"      $%        ",
"    @.&*        ",
"    =@-*        ",
"       ;        ",
"       ;   %%   ",
"       ;   %%   ",
"      -*  -*    ",
"      -*  *     ",
"       *>*-     ",
"        --      ",
"                "};
