/* XPM */
static char * i02_xpm[] = {
"16 16 15 1",
" 	c #FFFFFF",
".	c #BBBBBB",
"+	c #ECECEC",
"@	c #FCFCFC",
"#	c #C9C9C9",
"$	c #5B5B5B",
"%	c #9E9E9E",
"&	c #EAEAEA",
"*	c #939393",
"=	c #E4E4E4",
"-	c #B4B4B4",
";	c #848484",
">	c #A8A8A8",
",	c #7D7D7D",
"'	c #B8B8B8",
"      .+        ",
"      +@        ",
"                ",
"                ",
"      ##        ",
"      $%        ",
"    &*##        ",
"  =-; ##        ",
"  ==  >&        ",
"      ##        ",
"      >&    %%  ",
"      >&    ##  ",
"      >&    ,%  ",
"      >&&&&'#   ",
"       *>>>;    ",
"                "};
