/* XPM */
static char * i06_xpm[] = {
"16 16 14 1",
" 	c #FFFFFF",
".	c #C0C0C0",
"+	c #F4F4F4",
"@	c #A7A7A7",
"#	c #D4D4D4",
"$	c #E4E4E4",
"%	c #B4B4B4",
"&	c #C9C9C9",
"*	c #A8A8A8",
"=	c #EAEAEA",
"-	c #9E9E9E",
";	c #939393",
">	c #848484",
",	c #D7D7D7",
"                ",
"     .+         ",
"     @#         ",
"                ",
"                ",
"     $$         ",
"     %%         ",
"     &&         ",
"     &&         ",
"     &&         ",
"     &&         ",
"     &&     *=  ",
"     --     ;   ",
"      ;    --   ",
"      =>   *=   ",
"       &;=,*    "};
