/* XPM */
static char * i13_xpm[] = {
"16 16 13 1",
" 	c #FFFFFF",
".	c #C9C9C9",
"+	c #5B5B5B",
"@	c #9E9E9E",
"#	c #B8B8B8",
"$	c #A8A8A8",
"%	c #939393",
"&	c #848484",
"*	c #747474",
"=	c #ECECEC",
"-	c #BBBBBB",
";	c #FCFCFC",
">	c #EAEAEA",
"                ",
"     .+         ",
"     .@         ",
"                ",
"                ",
"      #$        ",
"      .%        ",
"     .&         ",
"   ..*#         ",
" =-....         ",
" ;=  $>      >$ ",
"     $>      @@ ",
"     $>      %  ",
"     ..     %   ",
"      .@>>&.    ",
"       .$$>     "};
