/* XPM */
static char * i14_xpm[] = {
"16 16 13 1",
" 	c #FFFFFF",
".	c #C9C9C9",
"+	c #9E9E9E",
"@	c #B8B8B8",
"#	c #939393",
"$	c #5F5F5F",
"%	c #A8A8A8",
"&	c #EAEAEA",
"*	c #D4D4D4",
"=	c #8C8C8C",
"-	c #F4F4F4",
";	c #848484",
">	c #919191",
"    .+.         ",
"    .+.         ",
"                ",
"                ",
"                ",
"     @#         ",
"    +$%         ",
"  &%...         ",
" *=& ..         ",
" --  %&       # ",
"     #       &% ",
"    &%       .. ",
"    &%       ;@ ",
"    ..     &>.  ",
"     %@.+%%%;   ",
"      ..+&&     "};
