/* XPM */
static char * j00_xpm[] = {
"16 16 15 1",
" 	c #FFFFFF",
".	c #F4F4F4",
"+	c #D4D4D4",
"@	c #747474",
"#	c #9E9E9E",
"$	c #C9C9C9",
"%	c #ECECEC",
"&	c #C7C7C7",
"*	c #EAEAEA",
"=	c #A8A8A8",
"-	c #BBBBBB",
";	c #BABABA",
">	c #B8B8B8",
",	c #848484",
"'	c #939393",
"      .+        ",
"      .+        ",
"                ",
"       @        ",
"     #$#$       ",
"   %&$ *=       ",
"   -;   =*  >$  ",
"        $$ $,   ",
"        $>$     ",
"       *#,$     ",
"      #,#$      ",
"     '$ $$      ",
"     '  $$      ",
"     $> ##      ",
"      =='       ",
"       *        "};
