/* XPM */
static char * j07_xpm[] = {
"16 16 16 1",
" 	c #FFFFFF",
".	c #FCFCFC",
"+	c #888888",
"@	c #ECECEC",
"#	c #BBBBBB",
"$	c #D4D4D4",
"%	c #F4F4F4",
"&	c #A8A8A8",
"*	c #EAEAEA",
"=	c #B8B8B8",
"-	c #C9C9C9",
";	c #848484",
">	c #878787",
",	c #939393",
"'	c #9A9A9A",
")	c #9E9E9E",
"      .+        ",
"      @#        ",
"                ",
"       $%       ",
"       $%       ",
"       &*       ",
"       &*  =-   ",
"       &* -&    ",
"       &*&-     ",
"       ;>*      ",
"    *&,;*       ",
"   &'* &*       ",
"  --   ,        ",
"   ,  *&        ",
"   -) *&        ",
"    ----        "};
