/* XPM */
static char * j11_xpm[] = {
"16 16 12 1",
" 	c #FFFFFF",
".	c #797979",
"+	c #D5D5D5",
"@	c #EAEAEA",
"#	c #C9C9C9",
"$	c #A8A8A8",
"%	c #939393",
"&	c #747474",
"*	c #9E9E9E",
"=	c #555555",
"-	c #848484",
";	c #7D7D7D",
"                ",
"                ",
"      ..        ",
"      ++        ",
"                ",
"       @        ",
"      #$        ",
"     %###   @$  ",
"   #&  @$#*$$@  ",
"      @$=#*@    ",
"     #-@%       ",
"    @$  %       ",
"    ** ##       ",
"    ## **       ",
"     %*$@       ",
"      ;#        "};
