/* XPM */
static char * j12_xpm[] = {
"16 16 14 1",
" 	c #FFFFFF",
".	c #F4F4F4",
"+	c #D4D4D4",
"@	c #C9C9C9",
"#	c #939393",
"$	c #EAEAEA",
"%	c #383838",
"&	c #919191",
"*	c #3C3C3C",
"=	c #A8A8A8",
"-	c #9E9E9E",
";	c #686868",
">	c #7D7D7D",
",	c #9A9A9A",
"     .+@        ",
"     .+@        ",
"                ",
"       #        ",
"      $%        ",
"      &*$       ",
"    $===$       ",
"  $==$ =$ @-@   ",
"       @--@@    ",
"     $-;>-      ",
"    #=-&-       ",
"   --  @@       ",
"   #   =$       ",
"   @@ $=        ",
"   @-  #        ",
"    @#,=        "};
