/* XPM */
static char * j14_xpm[] = {
"16 16 17 1",
" 	c #FFFFFF",
".	c #F4F4F4",
"+	c #929292",
"@	c #E9E9E9",
"#	c #9E9E9E",
"$	c #A8A8A8",
"%	c #BBBBBB",
"&	c #888888",
"*	c #B8B8B8",
"=	c #C9C9C9",
"-	c #ECECEC",
";	c #FCFCFC",
">	c #EAEAEA",
",	c #939393",
"'	c #7D7D7D",
")	c #747474",
"!	c #919191",
"      ..        ",
"      ++        ",
"      @@        ",
"                ",
"      #$        ",
"    %&#*=       ",
"    -;  $>      ",
"        $>>==,  ",
"        ')$==   ",
"       ,!$      ",
"     == >$      ",
"    >$  >$      ",
"    ,   >$      ",
"    =*  >$      ",
"     $=*$       ",
"      ==        "};
