/* XPM */
static char * j15_xpm[] = {
"16 16 10 1",
" 	c #FFFFFF",
".	c #9E9E9E",
"+	c #C9C9C9",
"@	c #848484",
"#	c #878787",
"$	c #A8A8A8",
"%	c #B8B8B8",
"&	c #EAEAEA",
"*	c #939393",
"=	c #747474",
"      .+        ",
"      @#        ",
"                ",
"                ",
"       $        ",
"     %$%+       ",
"     + &$       ",
"        *       ",
"       &$&+$*   ",
"     &+@=$+&    ",
"    +@+%+       ",
"   @%   *       ",
"   ++   *       ",
"   &@  ++       ",
"    +$%@        ",
"     %+         "};
