/* XPM */
static char * j17_xpm[] = {
"16 16 14 1",
" 	c #FFFFFF",
".	c #A7A7A7",
"+	c #A8A8A8",
"@	c #EAEAEA",
"#	c #939393",
"$	c #B8B8B8",
"%	c #C9C9C9",
"&	c #ECECEC",
"*	c #BBBBBB",
"=	c #FCFCFC",
"-	c #6F6F6F",
";	c #878787",
">	c #9E9E9E",
",	c #9A9A9A",
"      ..+       ",
"                ",
"       @        ",
"      #++       ",
"    @+  $%      ",
"   &*   @+  @%  ",
"   =&    # @+%  ",
"         +$+    ",
"        %-$     ",
"       +%;      ",
"      #@@+      ",
"     %% %%      ",
"     #  %%      ",
"     %% %%      ",
"     >> +@      ",
"       ,+       "};
