/* XPM */
static char * k01_xpm[] = {
"16 16 16 1",
" 	c #FFFFFF",
".	c #A8A8A8",
"+	c #939393",
"@	c #C9C9C9",
"#	c #9E9E9E",
"$	c #919191",
"%	c #848484",
"&	c #EAEAEA",
"*	c #B8B8B8",
"=	c #6F6F6F",
"-	c #9A9A9A",
";	c #797979",
">	c #737373",
",	c #494949",
"'	c #606060",
")	c #555555",
"       .+@@     ",
"      #$ %&     ",
"      + @#      ",
"      .*@       ",
"      ++        ",
"     &=&        ",
"     *%         ",
"    @*. #.&     ",
"     &.+#&.     ",
"     &-.  @@    ",
"     &;>@..&    ",
"     &,'#&    .&",
"      ) #@    .&",
"      )  .*   + ",
"      +   @+++  ",
"                "};
