/* XPM */
static char * k03_xpm[] = {
"16 16 16 1",
" 	c #FFFFFF",
".	c #A8A8A8",
"+	c #EAEAEA",
"@	c #C9C9C9",
"#	c #B8B8B8",
"$	c #939393",
"%	c #9E9E9E",
"&	c #878787",
"*	c #F4F4F4",
"=	c #A7A7A7",
"-	c #4C4C4C",
";	c #848484",
">	c #D4D4D4",
",	c #D7D7D7",
"'	c #9A9A9A",
")	c #6F6F6F",
"       .+.+     ",
"      .+ @@     ",
"     @#   $     ",
"     .+   $     ",
"    +.   %%     ",
"    +.  +$      ",
"    +. @.       ",
"     &.@        ",
"   *=-+ %;.     ",
"   *>.,.@+'+    ",
"     @;+  @@ +. ",
"     %%++%@  %% ",
"     ;#..@   $  ",
"     ;# $   +.  ",
"     ;#  $@ %@  ",
"     ),   @.@   "};
