/* XPM */
static char * k05_xpm[] = {
"16 16 13 1",
" 	c #FFFFFF",
".	c #A8A8A8",
"+	c #939393",
"@	c #848484",
"#	c #C9C9C9",
"$	c #EAEAEA",
"%	c #B8B8B8",
"&	c #878787",
"*	c #9E9E9E",
"=	c #747474",
"-	c #797979",
";	c #3C3C3C",
">	c #7D7D7D",
"     .+@#       ",
"    .$ %#       ",
"    &  +        ",
"    + $.        ",
"    + #         ",
"    +#*         ",
"    ++          ",
"   *=   $       ",
" #.#.$.&.       ",
" #$ #*#  +      ",
"    %=  $.$     ",
"    -;=+.       ",
"    *>#+$       ",
"    **  .#$$.   ",
"    ##   #.#    ",
"           #    "};
