/* XPM */
static char * k10_xpm[] = {
"16 16 22 1",
" 	c #FFFFFF",
".	c #EAEAEA",
"+	c #C9C9C9",
"@	c #9E9E9E",
"#	c #A8A8A8",
"$	c #939393",
"%	c #D7D7D7",
"&	c #B8B8B8",
"*	c #575757",
"=	c #747474",
"-	c #D4D4D4",
";	c #8C8C8C",
">	c #F4F4F4",
",	c #E0E0E0",
"'	c #9A9A9A",
")	c #797979",
"!	c #616161",
"~	c #4B4B4B",
"{	c #A1A1A1",
"]	c #7A7A7A",
"^	c #848484",
"/	c #878787",
"     .++@       ",
"     #++@$      ",
"     $  ++      ",
"     ++ $       ",
"     #%#        ",
"     &*.        ",
"     =+         ",
"   -;++    +    ",
"   >,++  .#+    ",
"     +&###%#    ",
"     @@#% .#    ",
"     +=   $     ",
"     ')++++     ",
"     !&=&#      ",
"     ~{ +@  .#  ",
"     ]-  ^'/$$  "};
