/* XPM */
static char * k11_xpm[] = {
"16 16 20 1",
" 	c #FFFFFF",
".	c #878787",
"+	c #A8A8A8",
"@	c #939393",
"#	c #C9C9C9",
"$	c #EAEAEA",
"%	c #848484",
"&	c #9E9E9E",
"*	c #9A9A9A",
"=	c #C0C0C0",
"-	c #A7A7A7",
";	c #979797",
">	c #838383",
",	c #9C9C9C",
"'	c #BABABA",
")	c #E2E2E2",
"!	c #9B9B9B",
"~	c #F4F4F4",
"{	c #D4D4D4",
"]	c #616161",
"      .+        ",
"     @ ##       ",
"     @  ##      ",
"    $+  ##      ",
"    $+  +$      ",
"    $+ $@       ",
"     .#+        ",
"    @%&         ",
"     ## $&#+    ",
"     ##+*&#*$   ",
"     #&#   ##   ",
"     =-    +$   ",
"     ;>$&#%#    ",
"     +$+,'$     ",
"     ## )!   $  ",
"     +$ ~{]*@+  "};
