/* XPM */
static char * k13_xpm[] = {
"16 16 12 1",
" 	c #FFFFFF",
".	c #939393",
"+	c #C9C9C9",
"@	c #EAEAEA",
"#	c #A8A8A8",
"$	c #9E9E9E",
"%	c #747474",
"&	c #B8B8B8",
"*	c #848484",
"=	c #686868",
"-	c #636363",
";	c #4E4E4E",
"      ...+      ",
"    @#   $+     ",
"    ++    #@    ",
"    #@    .     ",
"    .   @#      ",
"   +%...#@      ",
"   @#           ",
"   @#     @     ",
"   @#  @+.#     ",
"   ++ +#+ #@    ",
"   +&#+   #@    ",
"   +*@    .     ",
"   &=@   #@     ",
"   -;#.%#@      ",
"   *&  +.#+     ",
"   ++    @*@    "};
