/* XPM */
static char * k14_xpm[] = {
"16 16 13 1",
" 	c #FFFFFF",
".	c #A8A8A8",
"+	c #D7D7D7",
"@	c #EAEAEA",
"#	c #939393",
"$	c #9E9E9E",
"%	c #C9C9C9",
"&	c #848484",
"*	c #7D7D7D",
"=	c #B8B8B8",
"-	c #6F6F6F",
";	c #9A9A9A",
">	c #747474",
"     ...        ",
"    .+ @.@      ",
"   @.  @#       ",
"   .@@..        ",
"   $$.@         ",
"   %%   @%      ",
"   %%   .%#     ",
"   @. %%  @.    ",
"   @.%%   @.    ",
"   @..@   @.    ",
"   %$$&*+@#     ",
"   %&==*-.      ",
"   =&   .@      ",
"   +-   @.   ;@ ",
"   @.    %>...  ",
"   $$      @@   "};
