/* XPM */
static char * k15_xpm[] = {
"16 16 13 1",
" 	c #FFFFFF",
".	c #A8A8A8",
"+	c #939393",
"@	c #9E9E9E",
"#	c #919191",
"$	c #EAEAEA",
"%	c #C9C9C9",
"&	c #6A6A6A",
"*	c #B8B8B8",
"=	c #848484",
"-	c #747474",
";	c #7D7D7D",
">	c #878787",
"      ..+       ",
"     @#$ .$     ",
"     .$ %%      ",
"    $.  .$      ",
"    %% .$       ",
"    %@.         ",
"   .&@$  $%     ",
"    %%  @.%     ",
"    %% .#  +    ",
"    %%%%  $.    ",
"    %*. $$%%    ",
"    %@=@..      ",
"    %-$@+       ",
"    @@   +   @% ",
"    ;;   .$ .%  ",
"    %%    .>$   "};
