/* XPM */
static char * k16_xpm[] = {
"16 16 19 1",
" 	c #FFFFFF",
".	c #9E9E9E",
"+	c #EAEAEA",
"@	c #A8A8A8",
"#	c #939393",
"$	c #C9C9C9",
"%	c #FCFCFC",
"&	c #ECECEC",
"*	c #848484",
"=	c #BBBBBB",
"-	c #B8B8B8",
";	c #7D7D7D",
">	c #747474",
",	c #9A9A9A",
"'	c #8D8D8D",
")	c #616161",
"!	c #6F6F6F",
"~	c #919191",
"{	c #D7D7D7",
"      ..++      ",
"      ..@@#     ",
"     #    $$    ",
"    $$    @+    ",
"    ..   +@     ",
"    $$  +@      ",
"    $$+$#       ",
"  %&.*@$        ",
"  &=.- $$$$@    ",
"    $$$$$$$-$   ",
"    $;;    #    ",
"    $>  ++@     ",
"    ,'.)@@+     ",
"   +!,.+@,    $$",
"   +)    +@~ {@ ",
"   $$      .#@  "};
