/* XPM */
static char * l00_xpm[] = {
"16 16 10 1",
" 	c #FFFFFF",
".	c #848484",
"+	c #C9C9C9",
"@	c #A8A8A8",
"#	c #EAEAEA",
"$	c #939393",
"%	c #9A9A9A",
"&	c #616161",
"*	c #A7A7A7",
"=	c #F4F4F4",
"       .+       ",
"      @##@      ",
"     ++  $      ",
"     @# #@      ",
"     $  %#      ",
"    #@  @       ",
"     $#$        ",
"     $@         ",
"    #&          ",
"    $$          ",
"  ** $          ",
"  == $    @#    ",
"     ++   $     ",
"     #@  @      ",
"      @%$#      ",
"       #        "};
