/* XPM */
static char * l07_xpm[] = {
"16 16 11 1",
" 	c #FFFFFF",
".	c #A8A8A8",
"+	c #C9C9C9",
"@	c #939393",
"#	c #EAEAEA",
"$	c #B8B8B8",
"%	c #848484",
"&	c #969696",
"*	c #A5A5A5",
"=	c #7D7D7D",
"-	c #9E9E9E",
"       .+       ",
"      @#+++     ",
"     .   .#     ",
"    +$  #.      ",
"   #.   %$      ",
"   #.  ++       ",
"   ++  @        ",
"   .# @         ",
"   .#@          ",
"   &*           ",
"   &*   ++      ",
"   .#   ++      ",
"   .#   @       ",
"   .#  =-       ",
"   .# ++        ",
"   --.+         "};
