/* XPM */
static char * l10_xpm[] = {
"16 16 12 1",
" 	c #FFFFFF",
".	c #EAEAEA",
"+	c #A8A8A8",
"@	c #C9C9C9",
"#	c #B8B8B8",
"$	c #939393",
"%	c #F4F4F4",
"&	c #E0E0E0",
"*	c #6F6F6F",
"=	c #D4D4D4",
"-	c #8C8C8C",
";	c #9A9A9A",
"      .++@      ",
"      +..#+     ",
"     @@  .+     ",
"     $   .+     ",
"     $   .+     ",
"    .+   @@     ",
"    @@  #@      ",
"    .+ @+       ",
"  %&#*$@        ",
"  =-#;          ",
"    .+          ",
"    .+          ",
"    .+          ",
"    .+    ;.    ",
"     +#@@@+     ",
"     +#@@@      "};
