/* XPM */
static char * l13_xpm[] = {
"16 16 14 1",
" 	c #FFFFFF",
".	c #C9C9C9",
"+	c #848484",
"@	c #A8A8A8",
"#	c #9A9A9A",
"$	c #EAEAEA",
"%	c #939393",
"&	c #6F6F6F",
"*	c #C3C3C3",
"=	c #949494",
"-	c #D4D4D4",
";	c #E0E0E0",
">	c #9E9E9E",
",	c #747474",
"     .+@@#@     ",
"    ..   $@     ",
"    $@   $@     ",
"    $@   ..     ",
"    $@   %      ",
"    $@  ..      ",
"    $@ ..       ",
"    $@$@        ",
"    $@@$        ",
"    $&          ",
"   *=#          ",
"   -;@      %   ",
"    $@     ..   ",
"    $@    >.    ",
"     %  $..     ",
"      .,@.      "};
