/* XPM */
static char * l15_xpm[] = {
"16 16 14 1",
" 	c #FFFFFF",
".	c #C9C9C9",
"+	c #9A9A9A",
"@	c #A8A8A8",
"#	c #9E9E9E",
"$	c #EAEAEA",
"%	c #939393",
"&	c #B8B8B8",
"*	c #848484",
"=	c #D4D4D4",
"-	c #7E7E7E",
";	c #636363",
">	c #CBCBCB",
",	c #A1A1A1",
"       .+@      ",
"      .# ##     ",
"      @$  %     ",
"      %  $@     ",
"      %  ..     ",
"     $@  %      ",
"     $@ ##      ",
"     ##..       ",
"     .&@        ",
"     %%         ",
"     *&         ",
"   =-;$         ",
"   =>,$         ",
"     ##   ..    ",
"      %$ .%     ",
"       @@.      "};
