/* XPM */
static char * l16_xpm[] = {
"16 16 8 1",
" 	c #FFFFFF",
".	c #C9C9C9",
"+	c #939393",
"@	c #9E9E9E",
"#	c #A8A8A8",
"$	c #EAEAEA",
"%	c #878787",
"&	c #555555",
"      .+        ",
"     .@ +       ",
"    ..  #$      ",
"    $#  #$      ",
"    $#  #$      ",
"    $# $#       ",
"     + #$       ",
"     +@@        ",
"     %#         ",
"     &          ",
"     +          ",
"    $#          ",
"    $#          ",
"    $#  @@      ",
"    $#.$+       ",
"      .#        "};
