/* XPM */
static char * l17_xpm[] = {
"16 16 9 1",
" 	c #FFFFFF",
".	c #848484",
"+	c #9E9E9E",
"@	c #C9C9C9",
"#	c #939393",
"$	c #A8A8A8",
"%	c #EAEAEA",
"&	c #B8B8B8",
"*	c #9A9A9A",
"       .+       ",
"      @@@#      ",
"      $% #      ",
"     %$ ++      ",
"     @@ #       ",
"     @@@@       ",
"     @@$%       ",
"     @&$        ",
"     @.%        ",
"     ++         ",
"    &+@         ",
"    $@@         ",
"     @@         ",
"     @@ $%      ",
"     @@*%       ",
"       $        "};
