/* XPM */
static char * m00_xpm[] = {
"16 16 14 1",
" 	c #FFFFFF",
".	c #939393",
"+	c #C9C9C9",
"@	c #B8B8B8",
"#	c #848484",
"$	c #A8A8A8",
"%	c #9E9E9E",
"&	c #EAEAEA",
"*	c #B4B4B4",
"=	c #8E8E8E",
"-	c #919191",
";	c #E4E4E4",
">	c #747474",
",	c #7D7D7D",
"                ",
"                ",
"                ",
"                ",
"                ",
"   .  +  ++     ",
"  @# $@  .++    ",
" %@$#@. ++&$    ",
"*=&$. %-$  .    ",
";;+%+ +%+  .    ",
"  +>  +,%  .  . ",
"  @#  +#&  . ++ ",
"  ,,  +>  &$ .  ",
"  &$  &$   ..   ",
"                ",
"                "};
