/* XPM */
static char * m01_xpm[] = {
"16 16 10 1",
" 	c #FFFFFF",
".	c #C9C9C9",
"+	c #A8A8A8",
"@	c #747474",
"#	c #9E9E9E",
"$	c #D7D7D7",
"%	c #919191",
"&	c #939393",
"*	c #EAEAEA",
"=	c #B8B8B8",
"                ",
"                ",
"                ",
"                ",
"           .    ",
"  +  .@   .#    ",
"$+%# &+* ..+*   ",
"+ ..##+* & &    ",
"  ..& .... &    ",
"  .=+ +*.. &    ",
"  .#. #%+  +* & ",
"  .@   @.  ..*+ ",
"  ..   +*   &+* ",
"            .@  ",
"                ",
"                "};
