/* XPM */
static char * m03_xpm[] = {
"16 16 18 1",
" 	c #FFFFFF",
".	c #9E9E9E",
"+	c #A8A8A8",
"@	c #D7D7D7",
"#	c #939393",
"$	c #C9C9C9",
"%	c #7D7D7D",
"&	c #EAEAEA",
"*	c #9A9A9A",
"=	c #BBBBBB",
"-	c #B8B8B8",
";	c #ECECEC",
">	c #5B5B5B",
",	c #848484",
"'	c #6F6F6F",
")	c #686868",
"!	c #919191",
"~	c #878787",
"                ",
"                ",
"                ",
"  .    +@  #$   ",
" .%+ &+ + $$$+  ",
" $ *&$$ &++& *& ",
"=  $-+   **  $$ ",
";   >.   ,-  $$ ",
"   &'&   ,-  #  ",
"   &'&  -)$  #  ",
"   !)   ~+   .. ",
"   ..  $$    &++",
"   +&          &",
"                ",
"                ",
"                "};
