/* XPM */
static char * m04_xpm[] = {
"16 16 14 1",
" 	c #FFFFFF",
".	c #9E9E9E",
"+	c #848484",
"@	c #EAEAEA",
"#	c #B8B8B8",
"$	c #939393",
"%	c #9A9A9A",
"&	c #C9C9C9",
"*	c #686868",
"=	c #A8A8A8",
"-	c #D4D4D4",
";	c #F4F4F4",
">	c #747474",
",	c #5B5B5B",
"                ",
"                ",
"                ",
"                ",
"  .+ @    +#    ",
" $#%&*&   $=@   ",
"- @==@=@ $ &&   ",
"; &*# ..&> &&   ",
"  .,  &&$  &&   ",
"  %%  &.&  ..   ",
"  +#  &+@  && #&",
"  =@  &&   @=== ",
"             @  ",
"                ",
"                ",
"                "};
