/* XPM */
static char * m06_xpm[] = {
"16 16 12 1",
" 	c #FFFFFF",
".	c #A8A8A8",
"+	c #9A9A9A",
"@	c #9E9E9E",
"#	c #747474",
"$	c #EAEAEA",
"%	c #C9C9C9",
"&	c #939393",
"*	c #878787",
"=	c #848484",
"-	c #919191",
";	c #7D7D7D",
"                ",
"                ",
"                ",
"                ",
"  .+  @#$ %&%   ",
" +$* %@ .%@ =$  ",
"%= %%.$ .+$ %%  ",
".  @-.  %#  %%  ",
"   @@&  .*  %%  ",
"   %@%  *.  &   ",
"   .*  $=%  &   ",
"  $=%  $=%  &   ",
"  $=%   &   & @&",
"  $.        .-@ ",
"            %;  ",
"                "};
