/* XPM */
static char * m16_xpm[] = {
"16 16 17 1",
" 	c #FFFFFF",
".	c #939393",
"+	c #C9C9C9",
"@	c #9E9E9E",
"#	c #EAEAEA",
"$	c #A8A8A8",
"%	c #878787",
"&	c #C3C3C3",
"*	c #A1A1A1",
"=	c #848484",
"-	c #7D7D7D",
";	c #B8B8B8",
">	c #D4D4D4",
",	c #F4F4F4",
"'	c #6F6F6F",
")	c #7A7A7A",
"!	c #C0C0C0",
"                ",
"                ",
"                ",
"  .+  +@  #$%   ",
"&* =#@@-++$ =;  ",
">, #'+  )!  ++  ",
"   +;   ),  @@  ",
"   ++   .   ++  ",
"   @@   .   $#  ",
"   $#  #$   .   ",
"  ++   ++   .   ",
"  ++   ++   +++ ",
"  ++   ++   +@+ ",
"             +  ",
"                ",
"                "};
