/* XPM */
static char * n01_xpm[] = {
"16 16 16 1",
" 	c #FFFFFF",
".	c #C9C9C9",
"+	c #EAEAEA",
"@	c #848484",
"#	c #9E9E9E",
"$	c #A8A8A8",
"%	c #ECECEC",
"&	c #BBBBBB",
"*	c #B8B8B8",
"=	c #FCFCFC",
"-	c #939393",
";	c #8C8C8C",
">	c #808080",
",	c #8D8D8D",
"'	c #E0E0E0",
")	c #878787",
"                ",
"                ",
"                ",
"                ",
"      .   +     ",
"   +.@#  .$     ",
" %&$.*..@...    ",
" =%  $+-+ ..    ",
"     ;>   ..    ",
"     ,'   $+    ",
"    ..    $+    ",
"    ##    $+ -  ",
"    ..    $)@+  ",
"            .   ",
"                ",
"                "};
