/* XPM */
static char * n02_xpm[] = {
"16 16 17 1",
" 	c #FFFFFF",
".	c #FCFCFC",
"+	c #ECECEC",
"@	c #BBBBBB",
"#	c #939393",
"$	c #C9C9C9",
"%	c #A8A8A8",
"&	c #EAEAEA",
"*	c #747474",
"=	c #9E9E9E",
"-	c #A9A9A9",
";	c #8C8C8C",
">	c #808080",
",	c #C0C0C0",
"'	c #848484",
")	c #B8B8B8",
"!	c #9A9A9A",
"                ",
"                ",
"                ",
" .+             ",
" +@#    $       ",
"   %& $*$       ",
"   %&== &%      ",
"   %-$   #      ",
"   ;>    #      ",
"   ,,    %&     ",
"   $$    ') !&  ",
"   $$    $$%%   ",
"   $$      &    ",
"                ",
"                ",
"                "};
