/* XPM */
static char * n14_xpm[] = {
"16 16 13 1",
" 	c #FFFFFF",
".	c #EAEAEA",
"+	c #C9C9C9",
"@	c #A8A8A8",
"#	c #939393",
"$	c #9E9E9E",
"%	c #848484",
"&	c #B8B8B8",
"*	c #878787",
"=	c #979797",
"-	c #777777",
";	c #A7A7A7",
">	c #D7D7D7",
"                ",
"                ",
"   .+           ",
"  .@+@    #@+   ",
" $%  &+ .@ .+@  ",
" +    ++@.   *  ",
"      =-+    #  ",
"      ;;     #  ",
"      ++    .@  ",
"     .@     .@  ",
"     #      .@  ",
"    #       .@ #",
"   ++       .@.@",
"   #        .@@ ",
"             @> ",
"                "};
