/* XPM */
static char * n15_xpm[] = {
"16 16 14 1",
" 	c #FFFFFF",
".	c #F4F4F4",
"+	c #EAEAEA",
"@	c #CBCBCB",
"#	c #B0B0B0",
"$	c #C9C9C9",
"%	c #A8A8A8",
"&	c #E0E0E0",
"*	c #8C8C8C",
"=	c #B8B8B8",
"-	c #9A9A9A",
";	c #9E9E9E",
">	c #686868",
",	c #848484",
"                ",
"                ",
"  ..    ++      ",
"  @#  $%%%%     ",
"  &* %=+ +-     ",
"  +%;$    %+    ",
"  +>;     $$    ",
"  +,      $$    ",
"  +%      +%    ",
"  $$      +%    ",
"  +%      +%    ",
"  +%      +%    ",
"  +%      +%    ",
"                ",
"                ",
"                "};
