/* XPM */
static char * n16_xpm[] = {
"16 16 25 1",
" 	c #FFFFFF",
".	c #A8A8A8",
"+	c #EAEAEA",
"@	c #9E9E9E",
"#	c #939393",
"$	c #C9C9C9",
"%	c #BBBBBB",
"&	c #9B9B9B",
"*	c #919191",
"=	c #7D7D7D",
"-	c #ECECEC",
";	c #A6A6A6",
">	c #7A7A7A",
",	c #FCFCFC",
"'	c #D9D9D9",
")	c #8C8C8C",
"!	c #C0C0C0",
"~	c #B8B8B8",
"{	c #9A9A9A",
"]	c #F4F4F4",
"^	c #4C4C4C",
"/	c #747474",
"(	c #8A8A8A",
"_	c #969696",
":	c #D1D1D1",
"                ",
"                ",
"                ",
"    .+   @#@    ",
"   $$$ %&* =$   ",
" -;$+.$>,   #   ",
" %' +)!~    {{  ",
"    +)]     {{  ",
"    +.      {{  ",
"    +.      {{  ",
"    +.      ~^  ",
"    @/      {{  ",
"    @/      ((  ",
"    $$      _:  ",
"                ",
"                "};
