/* XPM */
static char * o01_xpm[] = {
"16 16 15 1",
" 	c #FFFFFF",
".	c #EAEAEA",
"+	c #A8A8A8",
"@	c #C9C9C9",
"#	c #747474",
"$	c #919191",
"%	c #686868",
"&	c #939393",
"*	c #808080",
"=	c #949494",
"-	c #707070",
";	c #A1A1A1",
">	c #9E9E9E",
",	c #848484",
"'	c #B8B8B8",
"                ",
"                ",
"        .+      ",
"        @#      ",
"     @@@$%      ",
"   @&@@@*=@@+   ",
"   #    -;@@.   ",
"  @@    &       ",
"  &    .+       ",
" @@    >>       ",
" .+    @@       ",
"  @@   +.       ",
"   +. .+        ",
"    &>,         ",
"     >'         ",
"                "};
