/* XPM */
static char * o04_xpm[] = {
"16 16 13 1",
" 	c #FFFFFF",
".	c #EAEAEA",
"+	c #C9C9C9",
"@	c #A8A8A8",
"#	c #9E9E9E",
"$	c #616161",
"%	c #747474",
"&	c #9A9A9A",
"*	c #6F6F6F",
"=	c #B8B8B8",
"-	c #C5C5C5",
";	c #575757",
">	c #939393",
"                ",
"    .+++. .@  .@",
"   +@+++@#.$  %+",
"   +     #&*=.@ ",
" ++       -;#>  ",
".@        ++    ",
"++        ++    ",
"@.        ##    ",
"@.        ++    ",
"++        >     ",
"++        >     ",
".@        >     ",
" >       .@     ",
" +=      @.     ",
"  @     +       ",
"  .@+++>+       "};
