/* XPM */
static char * o05_xpm[] = {
"16 16 12 1",
" 	c #FFFFFF",
".	c #A8A8A8",
"+	c #C9C9C9",
"@	c #EAEAEA",
"#	c #9E9E9E",
"$	c #919191",
"%	c #939393",
"&	c #747474",
"*	c #7D7D7D",
"=	c #5B5B5B",
"-	c #3D3D3D",
";	c #848484",
"                ",
"   ..+    @.    ",
"  #$@+%+@ +&  .@",
"  .@   +.++#+*# ",
"  %      +=-#+  ",
" @.       +*.@  ",
" ++       ++    ",
" ++       ++    ",
" .@       ++    ",
" .@       ++    ",
" %        ++    ",
" %        .@    ",
" .@      @.     ",
" ##      %      ",
" @.     ;@      ",
"   .+@@@+       "};
