/* XPM */
static char * o06_xpm[] = {
"16 16 11 1",
" 	c #FFFFFF",
".	c #EAEAEA",
"+	c #C9C9C9",
"@	c #939393",
"#	c #A8A8A8",
"$	c #565656",
"%	c #969696",
"&	c #787878",
"*	c #D1D1D1",
"=	c #B8B8B8",
"-	c #7D7D7D",
"                ",
"                ",
"        ..      ",
"     .+@##$%##  ",
"    +#+   &*..  ",
"   #+     @     ",
"  +=      #.    ",
" .#       #.    ",
" .#       ++    ",
"  @       #.    ",
"  @      .#     ",
"  ++     ++     ",
"  .#.   -@      ",
"    ####-       ",
"     ...        ",
"                "};
