/* XPM */
static char * o07_xpm[] = {
"16 16 11 1",
" 	c #FFFFFF",
".	c #C9C9C9",
"+	c #EAEAEA",
"@	c #848484",
"#	c #A8A8A8",
"$	c #939393",
"%	c #989898",
"&	c #9B9B9B",
"*	c #C7C7C7",
"=	c #7B7B7B",
"-	c #9E9E9E",
"                ",
"                ",
"                ",
"      ..+ .@#   ",
"    +$..#%&++   ",
"    #    *=     ",
"   $     +#     ",
"  --     ..     ",
"  $      +#     ",
"  #+     ..     ",
"  ..     ..     ",
"   ..    #+     ",
"    .-  +#      ",
"     .$$#+      ",
"                ",
"                "};
