/* XPM */
static char * o10_xpm[] = {
"16 16 15 1",
" 	c #FFFFFF",
".	c #EAEAEA",
"+	c #C9C9C9",
"@	c #939393",
"#	c #A8A8A8",
"$	c #9E9E9E",
"%	c #848484",
"&	c #7D7D7D",
"*	c #727272",
"=	c #6F6F6F",
"-	c #838383",
";	c #E4E4E4",
">	c #8E8E8E",
",	c #B8B8B8",
"'	c #9A9A9A",
"   .+@##$.      ",
"  +%+ ..$##&    ",
" .#       .*=   ",
".#          .-; ",
"++           >> ",
"++            @ ",
"#.            ++",
"#.            ++",
"#.            #.",
"#.            @ ",
"#.           .# ",
"++           .# ",
" @           %, ",
" $$        #@   ",
"  #..    +@.    ",
"   #'@@@@+      "};
