/* XPM */
static char * o12_xpm[] = {
"16 16 13 1",
" 	c #FFFFFF",
".	c #EAEAEA",
"+	c #9E9E9E",
"@	c #C9C9C9",
"#	c #A8A8A8",
"$	c #808080",
"%	c #8C8C8C",
"&	c #E0E0E0",
"*	c #B1B1B1",
"=	c #848484",
"-	c #747474",
";	c #939393",
">	c #7D7D7D",
"                ",
"                ",
"    .+@#$%      ",
"   @#+@.&*=     ",
"   -      @@    ",
"  #.      .#    ",
"  ;        ++   ",
"  ;        .#   ",
"  ;        .#   ",
"  #.       @@   ",
"  @@      +;    ",
"   ;     @>     ",
"   @@.  @@      ",
"     ###        ",
"      ..        ",
"                "};
