/* XPM */
static char * oe01_xpm[] = {
"16 16 12 1",
" 	c #FFFFFF",
".	c #C9C9C9",
"+	c #848484",
"@	c #A8A8A8",
"#	c #B8B8B8",
"$	c #EAEAEA",
"%	c #D4D4D4",
"&	c #8C8C8C",
"*	c #9E9E9E",
"=	c #F4F4F4",
"-	c #939393",
";	c #D7D7D7",
"                ",
"    .+   @#     ",
"     $    .     ",
"                ",
"                ",
"         $$     ",
"     .@@%&@*    ",
"    @.$$== *@$  ",
"   -$       $@  ",
"  ..        ..  ",
"  $@        ..  ",
"  $@        ..  ",
"  $@        @$  ",
"   .*$     ;@   ",
"    .@@....@    ",
"      $....     "};
