/* XPM */
static char * oe03_xpm[] = {
"16 16 14 1",
" 	c #FFFFFF",
".	c #DADADA",
"+	c #9D9D9D",
"@	c #F4F4F4",
"#	c #E4E4E4",
"$	c #EAEAEA",
"%	c #C9C9C9",
"&	c #939393",
"*	c #A8A8A8",
"=	c #484848",
"-	c #A7A7A7",
";	c #E0E0E0",
">	c #C0C0C0",
",	c #9E9E9E",
"                ",
"   .+@  ##      ",
"   .+@  ##      ",
"                ",
"                ",
"        $$      ",
"     %%&*=-     ",
"    *%%  ;>%    ",
"   &$     %%    ",
"  *$      %%    ",
"  *$      %%    ",
"  *$      %%    ",
"  *$      %%    ",
"  $*      *$    ",
"   *$    ,%     ",
"    &*%%%%      "};
