/* XPM */
static char * oe06_xpm[] = {
"16 16 11 1",
" 	c #FFFFFF",
".	c #B4B4B4",
"+	c #E4E4E4",
"@	c #EAEAEA",
"#	c #939393",
"$	c #C9C9C9",
"%	c #A8A8A8",
"&	c #B8B8B8",
"*	c #747474",
"=	c #9E9E9E",
"-	c #848484",
"                ",
"     .+  ++     ",
"     .+  ++     ",
"                ",
"                ",
"                ",
"     @##$$%&@   ",
"    $%  $*%&%#  ",
"    $     $$    ",
"  $$      $$    ",
"  %@      $$    ",
"  %@      $$    ",
"  %@      ==    ",
"   #      %@    ",
"   $$@@@@-$     ",
"     %%%%@      "};
