/* XPM */
static char * oe12_xpm[] = {
"16 16 24 1",
" 	c #FFFFFF",
".	c #C9C9C9",
"+	c #969696",
"@	c #C0C0C0",
"#	c #A8A8A8",
"$	c #EAEAEA",
"%	c #9A9A9A",
"&	c #BABABA",
"*	c #FCFCFC",
"=	c #979797",
"-	c #848484",
";	c #9E9E9E",
">	c #434343",
",	c #858585",
"'	c #939393",
")	c #7D7D7D",
"!	c #6F6F6F",
"~	c #D7D7D7",
"{	c #878787",
"]	c #A7A7A7",
"^	c #D4D4D4",
"/	c #8D8D8D",
"(	c #636363",
"_	c #B8B8B8",
"   .    .       ",
"  +@# $%.&*     ",
"  +=-  #;>&     ",
"  -,-  ')!~     ",
"   #{   .       ",
"                ",
"                ",
"      ..]@      ",
"    ;'..^/      ",
"   ;(     '     ",
"   '      ..    ",
"  ..      ..    ",
"  ..      ..    ",
"   '      _.    ",
"   $#$   ;#     ",
"     #''';      "};
