/* XPM */
static char * oe13_xpm[] = {
"16 16 19 1",
" 	c #FFFFFF",
".	c #D4D4D4",
"+	c #C0C0C0",
"@	c #A7A7A7",
"#	c #C9C9C9",
"$	c #EAEAEA",
"%	c #9E9E9E",
"&	c #636363",
"*	c #D7D7D7",
"=	c #A8A8A8",
"-	c #7D7D7D",
";	c #5C5C5C",
">	c #7A7A7A",
",	c #9A9A9A",
"'	c #F4F4F4",
")	c #939393",
"!	c #686868",
"~	c #848484",
"{	c #919191",
"                ",
"                ",
"    .+   .@     ",
"    .+   ++     ",
"         #      ",
"                ",
"                ",
"  $$%#####%&*   ",
" ===%######-;>  ",
"$,          '') ",
"##            %%",
"##            ##",
" )            %%",
" #!           ~$",
"  {##     ##%## ",
"    #)))))##%#  "};
