/* XPM */
static char * oe14_xpm[] = {
"16 16 15 1",
" 	c #FFFFFF",
".	c #BBBBBB",
"+	c #9B9B9B",
"@	c #A8A8A8",
"#	c #939393",
"$	c #E4E4E4",
"%	c #ECECEC",
"&	c #E7E7E7",
"*	c #EAEAEA",
"=	c #C9C9C9",
"-	c #7E7E7E",
";	c #E0E0E0",
">	c #999999",
",	c #8C8C8C",
"'	c #9E9E9E",
"                ",
"   .+@#@ $$@#   ",
"   %&* * $$*    ",
"                ",
"                ",
"     *===*      ",
"    @@===@@-;   ",
"   #*     *>,   ",
" *@        *@   ",
" ==        *@   ",
" ==        *@   ",
" ''        ==   ",
"  #        #    ",
"  ='      @*    ",
"   =@====@      ",
"    *====*      "};
