/* XPM */
static char * oe16_xpm[] = {
"16 16 13 1",
" 	c #FFFFFF",
".	c #C9C9C9",
"+	c #939393",
"@	c #B8B8B8",
"#	c #777777",
"$	c #969696",
"%	c #A8A8A8",
"&	c #9E9E9E",
"*	c #747474",
"=	c #848484",
"-	c #A5A5A5",
";	c #D1D1D1",
">	c #EAEAEA",
"     .          ",
"     .   +      ",
"                ",
"                ",
"                ",
"     .@#$%..    ",
"   &%*=-;>..+   ",
"  %&>       ..  ",
" .@         ..  ",
" +          ..  ",
" +          ..  ",
" +          +   ",
" +         &.   ",
" ..       ..    ",
"  %>>   >+.     ",
"   .=+++%       "};
