/* XPM */
static char * oo01_xpm[] = {
"16 16 8 1",
" 	c #FFFFFF",
".	c #A8A8A8",
"+	c #EAEAEA",
"@	c #939393",
"#	c #C9C9C9",
"$	c #747474",
"%	c #9E9E9E",
"&	c #848484",
"     .+         ",
"     .+         ",
"     .+         ",
"     .+         ",
"                ",
"                ",
"    ++          ",
"    ..@##       ",
"  +.   #$@      ",
"  ##     .+     ",
" ##     +.      ",
" +.     +.      ",
"  @     %%      ",
"  ##    @       ",
"   #&  .+       ",
"    +@.         "};
