/* XPM */
static char * oo03_xpm[] = {
"16 16 14 1",
" 	c #FFFFFF",
".	c #BBBBBB",
"+	c #ECECEC",
"@	c #BABABA",
"#	c #C7C7C7",
"$	c #C9C9C9",
"%	c #9E9E9E",
"&	c #EAEAEA",
"*	c #A8A8A8",
"=	c #B8B8B8",
"-	c #848484",
";	c #939393",
">	c #9A9A9A",
",	c #747474",
"      .+        ",
"      @#        ",
"      $$        ",
"      %%        ",
"      $$        ",
"                ",
"                ",
"      &&        ",
"     $**=-      ",
"   &*=   *&     ",
"   *     %%     ",
"  *       ;     ",
" &>       *&    ",
"   *      *&    ",
"   =$&  &,$     ",
"     *;**       "};
