/* XPM */
static char * oo04_xpm[] = {
"16 16 13 1",
" 	c #FFFFFF",
".	c #BBBBBB",
"+	c #ECECEC",
"@	c #9B9B9B",
"#	c #E7E7E7",
"$	c #A8A8A8",
"%	c #EAEAEA",
"&	c #939393",
"*	c #F4F4F4",
"=	c #D4D4D4",
"-	c #C3C3C3",
";	c #C9C9C9",
">	c #9E9E9E",
"      .+        ",
"      @#        ",
"      $%        ",
"      &         ",
"      &         ",
"                ",
"                ",
"      %**       ",
"     &$=-$;;$   ",
"    &   %$;;%   ",
"  %$    %$      ",
"  $%    ;;      ",
"  $%   %$       ",
"   &   >>       ",
"    & ;;        ",
"     $&         "};
