/* XPM */
static char * oo07_xpm[] = {
"16 16 13 1",
" 	c #FFFFFF",
".	c #A8A8A8",
"+	c #C9C9C9",
"@	c #B8B8B8",
"#	c #EAEAEA",
"$	c #939393",
"%	c #8C8C8C",
"&	c #E0E0E0",
"*	c #C0C0C0",
"=	c #9E9E9E",
"-	c #848484",
";	c #7D7D7D",
">	c #7C7C7C",
"      .         ",
"     +@         ",
"     .#         ",
"     $          ",
"                ",
"                ",
"     #+#  ++    ",
"    #.+.%%@+    ",
"    .   &*+     ",
"   $     .#     ",
"  ==     $      ",
"  $     #.      ",
" #.     #.      ",
" #.     ++      ",
"  ==    -#      ",
"   +;>..@       "};
