/* XPM */
static char * oo13_xpm[] = {
"16 16 8 1",
" 	c #FFFFFF",
".	c #A8A8A8",
"+	c #878787",
"@	c #939393",
"#	c #C9C9C9",
"$	c #EAEAEA",
"%	c #848484",
"&	c #9E9E9E",
"      .         ",
"      +         ",
"      @         ",
"      @         ",
"      @         ",
"     ##         ",
"                ",
"        @.#$    ",
"      $$$$#%#   ",
"   $#@...   ##  ",
"  &.#       $.  ",
" .&         ##  ",
" +         $@   ",
" #&      $#.    ",
"  #.####..#     ",
"   $####$       "};
