/* XPM */
static char * oo16_xpm[] = {
"16 16 13 1",
" 	c #FFFFFF",
".	c #ECECEC",
"+	c #BBBBBB",
"@	c #FCFCFC",
"#	c #9B9B9B",
"$	c #EAEAEA",
"%	c #A8A8A8",
"&	c #C9C9C9",
"*	c #C0C0C0",
"=	c #808080",
"-	c #939393",
";	c #D4D4D4",
">	c #9E9E9E",
"     .+         ",
"     @#$        ",
"      %$        ",
"      &&        ",
"                ",
"         $      ",
"     $&&*=%     ",
"    -%&&*;>>    ",
"   -       -    ",
"  %$       >>   ",
" $%        &&   ",
" $%        >>   ",
" $%        %$   ",
"  -       $%    ",
"  $%     $-     ",
"    ->&>&%      "};
