/* XPM */
static char * p01_xpm[] = {
"16 16 15 1",
" 	c #FFFFFF",
".	c #9E9E9E",
"+	c #C9C9C9",
"@	c #939393",
"#	c #A8A8A8",
"$	c #747474",
"%	c #EAEAEA",
"&	c #A7A7A7",
"*	c #848484",
"=	c #F4F4F4",
"-	c #9A9A9A",
";	c #B8B8B8",
">	c #919191",
",	c #6F6F6F",
"'	c #D7D7D7",
"                ",
"                ",
"                ",
"    .+ @@       ",
"   #$ @  @      ",
"  @%@++   @%    ",
"&& %##%    *+   ",
"== %-#     ..   ",
"   %*+;   >#    ",
"    $+*++#.     ",
"    *; ++%      ",
"    *;          ",
"    *;          ",
"    ,'          ",
"    @           ",
"                "};
