/* XPM */
static char * p06_xpm[] = {
"16 16 17 1",
" 	c #FFFFFF",
".	c #C9C9C9",
"+	c #939393",
"@	c #EAEAEA",
"#	c #848484",
"$	c #A8A8A8",
"%	c #9E9E9E",
"&	c #919191",
"*	c #878787",
"=	c #F4F4F4",
"-	c #A7A7A7",
";	c #595959",
">	c #D4D4D4",
",	c #B8B8B8",
"'	c #747474",
")	c #6F6F6F",
"!	c #616161",
"                ",
"                ",
"     ..  +@     ",
"    .#@.. $+%   ",
"   ..$&%    %   ",
"   + *$     ..  ",
"  %.@#.     ..  ",
"=-% @;$     ..  ",
"=>  ,#+    @$   ",
"    ,#%&   $@   ",
"    '. $+$+     ",
"   @)@   @      ",
"   @!           ",
"   @!           ",
"   ,#           ",
"   @$           "};
