/* XPM */
static char * p11_xpm[] = {
"16 16 22 1",
" 	c #FFFFFF",
".	c #A8A8A8",
"+	c #B8B8B8",
"@	c #9E9E9E",
"#	c #EAEAEA",
"$	c #C9C9C9",
"%	c #7D7D7D",
"&	c #939393",
"*	c #8C8C8C",
"=	c #E0E0E0",
"-	c #D4D4D4",
";	c #F4F4F4",
">	c #848484",
",	c #919191",
"'	c #9A9A9A",
")	c #6F6F6F",
"!	c #707070",
"~	c #B4B4B4",
"{	c #D1D1D1",
"]	c #E4E4E4",
"^	c #686868",
"/	c #555555",
"  .+@       #$  ",
" $$ %$  $$&&.$. ",
"$$   .#$@$    +$",
"*=   &@@      #.",
"-;  @@.#       .",
"    >,$        $",
"   #')#        $",
"   $%!~        &",
"   &.{].$     $$",
"  #>$  #$&&..+. ",
"  $@$      ##$  ",
"  ,^            ",
"  >+            ",
"  >+            ",
"  /             ",
"  &             "};
