/* XPM */
static char * p15_xpm[] = {
"16 16 10 1",
" 	c #FFFFFF",
".	c #C9C9C9",
"+	c #939393",
"@	c #A8A8A8",
"#	c #EAEAEA",
"$	c #9E9E9E",
"%	c #686868",
"&	c #848484",
"*	c #919191",
"=	c #B8B8B8",
"    ..   +.+@.  ",
"    +..#@   #$. ",
"  #@ #@+      @#",
"  @# #%$      #@",
"     .&#      #@",
"     *%       #@",
"     &*$      $.",
"     + $=   .@. ",
"     +  @..+.#  ",
"    #@   ..     ",
"    ..          ",
"    ..          ",
"    ..          ",
"    #@          ",
"     +          ",
"     @#         "};
