/* XPM */
static char * p17_xpm[] = {
"16 16 21 1",
" 	c #FFFFFF",
".	c #D7D7D7",
"+	c #A6A6A6",
"@	c #ECECEC",
"#	c #C9C9C9",
"$	c #A8A8A8",
"%	c #BBBBBB",
"&	c #EAEAEA",
"*	c #9D9D9D",
"=	c #848484",
"-	c #7A7A7A",
";	c #707070",
">	c #BABABA",
",	c #4C4C4C",
"'	c #737373",
")	c #9E9E9E",
"!	c #616161",
"~	c #939393",
"{	c #6F6F6F",
"]	c #B8B8B8",
"^	c #555555",
"    .+@         ",
"   #$@%  &##&   ",
"  ## ##@*=##$$# ",
" $#  #-;>    &# ",
" &   #,*      &$",
"     =')       )",
"     !&~       #",
"    .{ ##      #",
"    =]  $&   &]$",
"    ^   &$$~~$# ",
"   ##     &     ",
"   $&           ",
"   $&           ",
"   ~            ",
"  ))            ",
"                "};
