/* XPM */
static char * q00_xpm[] = {
"16 16 12 1",
" 	c #FFFFFF",
".	c #C9C9C9",
"+	c #939393",
"@	c #A8A8A8",
"#	c #EAEAEA",
"$	c #747474",
"%	c #9E9E9E",
"&	c #616161",
"*	c #848484",
"=	c #797979",
"-	c #878787",
";	c #7D7D7D",
"                ",
"                ",
"                ",
"    .++@.       ",
"   ..  #$       ",
"  .%    &#      ",
"  +    .*#      ",
"  @#   *=#      ",
"  @#  #@@#      ",
"   +  @#@#  @#  ",
"   @-@  .. #@   ",
"     #  .. @#   ",
"        ..+     ",
"        .;%     ",
"        %%      ",
"        ..      "};
