/* XPM */
static char * q01_xpm[] = {
"16 16 13 1",
" 	c #FFFFFF",
".	c #EAEAEA",
"+	c #A8A8A8",
"@	c #939393",
"#	c #D1D1D1",
"$	c #6D6D6D",
"%	c #C9C9C9",
"&	c #B4B4B4",
"*	c #5E5E5E",
"=	c #9E9E9E",
"-	c #B8B8B8",
";	c #9A9A9A",
">	c #616161",
"    .+.         ",
"    +.++ +.     ",
"   @   .#$%     ",
"  .+    &*%     ",
"  ==    +-%     ",
"  %%   .+%%     ",
"  .+   %%%%     ",
"   +.  @ +.  == ",
"    @+@  +. %%  ",
"     .   +..+   ",
"         +.+.   ",
"         +-%    ",
"         +-%    ",
"         ;;     ",
"         >.     ",
"        .+      "};
