/* XPM */
static char * q02_xpm[] = {
"16 16 13 1",
" 	c #FFFFFF",
".	c #A8A8A8",
"+	c #939393",
"@	c #EAEAEA",
"#	c #C9C9C9",
"$	c #C7C7C7",
"%	c #6A6A6A",
"&	c #616161",
"*	c #9A9A9A",
"=	c #9E9E9E",
"-	c #B8B8B8",
";	c #919191",
">	c #747474",
"   ...+         ",
"  .@   #+$      ",
" @.     %&      ",
" ##     **      ",
" ##    #=#      ",
" ##    .-#      ",
" @.   @.##     .",
"  .;##+ ##    =#",
"   =##  ##   #= ",
"        ##  ##  ",
"        ## @.   ",
"        .@ +    ",
"        ####    ",
"        #-.     ",
"        #>      ",
"        +       "};
