/* XPM */
static char * q07_xpm[] = {
"16 16 14 1",
" 	c #FFFFFF",
".	c #EAEAEA",
"+	c #C9C9C9",
"@	c #A8A8A8",
"#	c #9B9B9B",
"$	c #BBBBBB",
"%	c #E7E7E7",
"&	c #888888",
"*	c #B8B8B8",
"=	c #848484",
"-	c #9A9A9A",
";	c #9E9E9E",
">	c #939393",
",	c #616161",
"      .         ",
"    +@@#$       ",
"   @+. %&       ",
"  +*   *=   @.  ",
"  ++   --  ;;   ",
"  @.  **@ .@    ",
"  ++  @.@ >     ",
"  .@+> .@++     ",
"    +  .@@.     ",
"       .@>      ",
"       .-@      ",
"       .-@      ",
"       .=+      ",
"       .=+      ",
"       .,       ",
"       ;;       "};
