/* XPM */
static char * q10_xpm[] = {
"16 16 17 1",
" 	c #FFFFFF",
".	c #9E9E9E",
"+	c #939393",
"@	c #A8A8A8",
"#	c #EAEAEA",
"$	c #C9C9C9",
"%	c #7D7D7D",
"&	c #848484",
"*	c #666666",
"=	c #F4F4F4",
"-	c #353535",
";	c #D4D4D4",
">	c #B8B8B8",
",	c #686868",
"'	c #919191",
")	c #616161",
"!	c #9A9A9A",
"    .+@@#       ",
"   $%  #&*=     ",
"  @#    #-;     ",
" ..     >&      ",
" +      ,'      ",
"#@      )#      ",
"#@     %%       ",
" $$   ..$       ",
"  ++@@>@     $@ ",
"    ##$$    $$# ",
"      @#  $@$   ",
"     #@ #@$#    ",
"     $$$@#      ",
"     +@>        ",
"    .%$         ",
"    !!          "};
