/* XPM */
static char * q12_xpm[] = {
"16 16 17 1",
" 	c #FFFFFF",
".	c #C9C9C9",
"+	c #A8A8A8",
"@	c #939393",
"#	c #EAEAEA",
"$	c #F4F4F4",
"%	c #C3C3C3",
"&	c #575757",
"*	c #919191",
"=	c #878787",
"-	c #6F6F6F",
";	c #7D7D7D",
">	c #616161",
",	c #D7D7D7",
"'	c #848484",
")	c #9E9E9E",
"!	c #B8B8B8",
"      .+@@@     ",
"     @.#  $%+   ",
"    +     $&*   ",
"    =     #-#   ",
"   ..     ;;    ",
"   @     #>     ",
"   +#   ,'.     ",
"   #+ #+++#     ",
"    #++##+     .",
"        ..   .+.",
"        @  )@.# ",
"       .. +)    ",
"      #+.@#     ",
"      +*)       ",
"     .'!        ",
"     ;;         "};
