/* XPM */
static char * q14_xpm[] = {
"16 16 16 1",
" 	c #FFFFFF",
".	c #C9C9C9",
"+	c #A8A8A8",
"@	c #EAEAEA",
"#	c #9E9E9E",
"$	c #C3C3C3",
"%	c #6A6A6A",
"&	c #606060",
"*	c #C0C0C0",
"=	c #686868",
"-	c #939393",
";	c #B8B8B8",
">	c #848484",
",	c #919191",
"'	c #878787",
")	c #4C4C4C",
"    ..+++.. +@  ",
"  #+..@@@..$%@  ",
"  #@       &*   ",
" ..       #=@   ",
" -       .;+    ",
" -      ....  ..",
" -@    @- -   >;",
"  ++.+++ +   .. ",
"   @.@@ #,  ##  ",
"        -  @+   ",
"       ..  -    ",
"       ## +@    ",
"       +@+@     ",
"      @++       ",
"      >'@       ",
"     @)         "};
