/* XPM */
static char * q16_xpm[] = {
"16 16 14 1",
" 	c #FFFFFF",
".	c #939393",
"+	c #A8A8A8",
"@	c #C7C7C7",
"#	c #ECECEC",
"$	c #EAEAEA",
"%	c #C9C9C9",
"&	c #7D7D7D",
"*	c #848484",
"=	c #B8B8B8",
"-	c #9E9E9E",
";	c #5B5B5B",
">	c #747474",
",	c #6F6F6F",
"    ...+@#      ",
"   .   $..      ",
"  %%    &&      ",
"  %%    *=      ",
"  +$   %%%      ",
"   %-%+%%% %%   ",
"    %%$ %%--    ",
"        %-%     ",
"        ..      ",
"        ;-      ",
"       %>       ",
"       *=       ",
"      $,$       ",
"      &&        ",
"      %%        ",
"                "};
