/* XPM */
static char * r03_xpm[] = {
"16 16 12 1",
" 	c #FFFFFF",
".	c #C9C9C9",
"+	c #EAEAEA",
"@	c #939393",
"#	c #747474",
"$	c #A8A8A8",
"%	c #7D7D7D",
"&	c #9E9E9E",
"*	c #848484",
"=	c #B8B8B8",
"-	c #686868",
";	c #616161",
"                ",
"          .     ",
"   .    +@.@.   ",
"   #   +$   %&  ",
"   $+ .*     *= ",
"   $+&&      .. ",
"   ..@          ",
"   .=$          ",
"   .&.          ",
"   +-&          ",
"    ;+          ",
"    ;+          ",
"    ;+          ",
"    *=          ",
"    $+          ",
"                "};
