/* XPM */
static char * r06_xpm[] = {
"16 16 14 1",
" 	c #FFFFFF",
".	c #EAEAEA",
"+	c #C9C9C9",
"@	c #D4D4D4",
"#	c #9E9E9E",
"$	c #A8A8A8",
"%	c #E0E0E0",
"&	c #A1A1A1",
"*	c #A9A9A9",
"=	c #848484",
"-	c #939393",
";	c #D7D7D7",
">	c #6F6F6F",
",	c #7D7D7D",
"                ",
"         .+     ",
"   @@   #$+$    ",
"   %&  $#  *=   ",
"   ++ -.   .$   ",
"   .$$.         ",
"   .$-          ",
"   .=+          ",
"   ;>           ",
"   ;>           ",
"   ,,           ",
"   ##           ",
"   ##           ",
"   ##           ",
"   ++           ",
"                "};
