/* XPM */
static char * r11_xpm[] = {
"16 16 15 1",
" 	c #FFFFFF",
".	c #E4E4E4",
"+	c #9E9E9E",
"@	c #C9C9C9",
"#	c #B4B4B4",
"$	c #919191",
"%	c #EAEAEA",
"&	c #939393",
"*	c #A8A8A8",
"=	c #7D7D7D",
"-	c #B8B8B8",
";	c #E0E0E0",
">	c #6E6E6E",
",	c #979797",
"'	c #838383",
"   ..    +@@    ",
"   ##  $++@+@%  ",
"   &   *     *  ",
"   &  &      ++ ",
"  %* @@      %* ",
"  @@=+          ",
"  *-@           ",
" ;>+            ",
" ,'             ",
" @@             ",
" *%             ",
" *%             ",
"%*              ",
"@@              ",
"@@              ",
"@@              "};
