/* XPM */
static char * r13_xpm[] = {
"16 16 16 1",
" 	c #FFFFFF",
".	c #EAEAEA",
"+	c #C9C9C9",
"@	c #A8A8A8",
"#	c #BBBBBB",
"$	c #ECECEC",
"%	c #B8B8B8",
"&	c #848484",
"*	c #8D8D8D",
"=	c #9B9B9B",
"-	c #E7E7E7",
";	c #9E9E9E",
">	c #797979",
",	c #878787",
"'	c #616161",
")	c #747474",
"          .     ",
"        +@@+    ",
"   #$  @%. &*   ",
"   =- ;;    >+  ",
"   ++++      @, ",
"   +%@        +&",
"   +&.         .",
"   .'           ",
"   +)           ",
"   +)           ",
"   +)           ",
"   +)           ",
"   %&           ",
"   ++           ",
"                ",
"                "};
