/* XPM */
static char * r14_xpm[] = {
"16 16 30 1",
" 	c #FFFFFF",
".	c #A8A8A8",
"+	c #EAEAEA",
"@	c #939393",
"#	c #B4B4B4",
"$	c #E4E4E4",
"%	c #6F6F6F",
"&	c #D7D7D7",
"*	c #9A9A9A",
"=	c #878787",
"-	c #676767",
";	c #5C5C5C",
">	c #B3B3B3",
",	c #9E9E9E",
"'	c #C9C9C9",
")	c #535353",
"!	c #A2A2A2",
"~	c #494949",
"{	c #C5C5C5",
"]	c #404040",
"^	c #858585",
"/	c #4C4C4C",
"(	c #919191",
"_	c #6A6A6A",
":	c #464646",
"<	c #797979",
"[	c #323232",
"}	c #A9A9A9",
"|	c #575757",
"1	c #686868",
"                ",
"    .+  .@#$    ",
"    %&  *=-#    ",
"    ;> ,,  ,'   ",
"    )!+.   ''   ",
"    ~{.+   ''   ",
"    ]&@    ''   ",
"    ]{.         ",
"    ]^,         ",
"    /('         ",
"    /_          ",
"    :<          ",
"    [}          ",
"    |}          ",
"    1(          ",
"    .+          "};
