/* XPM */
static char * r16_xpm[] = {
"16 16 9 1",
" 	c #FFFFFF",
".	c #C9C9C9",
"+	c #939393",
"@	c #EAEAEA",
"#	c #A8A8A8",
"$	c #7D7D7D",
"%	c #A7A7A7",
"&	c #777777",
"*	c #C0C0C0",
"                ",
"          ..    ",
"         +..+   ",
"   @#   +    +  ",
"   .. @#@    @# ",
"   ...#       + ",
"   .$.        #@",
"   %&         ..",
"   %*           ",
"   ..           ",
"   ..           ",
"   ..           ",
"   ..           ",
"   #@           ",
"   #@           ",
"                "};
