/* XPM */
static char * s00_xpm[] = {
"16 16 7 1",
" 	c #FFFFFF",
".	c #939393",
"+	c #A8A8A8",
"@	c #C9C9C9",
"#	c #B8B8B8",
"$	c #EAEAEA",
"%	c #9E9E9E",
"                ",
"                ",
"    ...+@       ",
"  #+   $@.$     ",
" @%       +     ",
" @@             ",
"  .             ",
"   .@           ",
"    @..+.@      ",
"       $ @      ",
"        $+      ",
"        @@      ",
"  .@    @@      ",
"   @@@@@+$      ",
"    @@@@        ",
"                "};
