/* XPM */
static char * s04_xpm[] = {
"16 16 11 1",
" 	c #FFFFFF",
".	c #C9C9C9",
"+	c #848484",
"@	c #B8B8B8",
"#	c #A8A8A8",
"$	c #EAEAEA",
"%	c #D7D7D7",
"&	c #939393",
"*	c #9E9E9E",
"=	c #747474",
"-	c #9A9A9A",
"     .++        ",
"     .@@#       ",
"    #$  %#      ",
"   ..    ..     ",
"   #$    ..     ",
"   ..$          ",
"     #&.$       ",
"       .#*      ",
"         *.     ",
"          @#    ",
"           **   ",
"   =       ..   ",
"   *.      #$   ",
"    #%    $#    ",
"     #.##-#     ",
"      .$$$      "};
