/* XPM */
static char * s06_xpm[] = {
"16 16 12 1",
" 	c #FFFFFF",
".	c #C9C9C9",
"+	c #EAEAEA",
"@	c #939393",
"#	c #9E9E9E",
"$	c #A8A8A8",
"%	c #C0C0C0",
"&	c #A7A7A7",
"*	c #F4F4F4",
"=	c #D4D4D4",
"-	c #B8B8B8",
";	c #848484",
"   ..++ @       ",
"  ##    +$      ",
" .#      +$     ",
" +$+      %&    ",
"   $.+    *=    ",
"    .$$.        ",
"      +.@+      ",
"         $      ",
"         +$     ",
"          ..    ",
"          +$    ",
"   @       @    ",
"   $-      @    ",
"    ..+...;.    ",
"     .$...+     ",
"                "};
