/* XPM */
static char * s10_xpm[] = {
"16 16 11 1",
" 	c #FFFFFF",
".	c #9E9E9E",
"+	c #A8A8A8",
"@	c #C9C9C9",
"#	c #EAEAEA",
"$	c #7D7D7D",
"%	c #848484",
"&	c #919191",
"*	c #B8B8B8",
"=	c #747474",
"-	c #939393",
"  .++++@@@@@.#  ",
" @$####@@@@@.+  ",
"@@            +#",
"%             @@",
"$               ",
"&               ",
"@$@.@++++++++#  ",
" .@.@########+  ",
"             .. ",
"              @@",
"              +#",
"              ..",
".*           #+ ",
"@+@.         =  ",
"  @.-@.@@@@@-@  ",
"     @.@@@@@    "};
