/* XPM */
static char * s12_xpm[] = {
"16 16 12 1",
" 	c #FFFFFF",
".	c #EAEAEA",
"+	c #C9C9C9",
"@	c #A8A8A8",
"#	c #939393",
"$	c #9E9E9E",
"%	c #848484",
"&	c #D4D4D4",
"*	c #F4F4F4",
"=	c #7D7D7D",
"-	c #B8B8B8",
";	c #D7D7D7",
"    .+@#$       ",
"   +%+. $#      ",
"   ++     &*    ",
"  .@      &*    ",
"   @.           ",
"    +=.         ",
"     $@#@$.     ",
"        .$@     ",
"          %-    ",
"          .@    ",
"           @.   ",
"  $$       @.   ",
"   @;      @.   ",
"    @$    -%    ",
"     $@$+@      ",
"      .$+.      "};
