/* XPM */
static char * s15_xpm[] = {
"16 16 12 1",
" 	c #FFFFFF",
".	c #EAEAEA",
"+	c #C9C9C9",
"@	c #A7A7A7",
"#	c #F4F4F4",
"$	c #A8A8A8",
"%	c #939393",
"&	c #9E9E9E",
"*	c #919191",
"=	c #B8B8B8",
"-	c #848484",
";	c #878787",
"                ",
"     ..++++@#   ",
"   $%$$++++@#   ",
"  &*            ",
"  %             ",
"  %             ",
"  $=+.......    ",
"   ++$$$$$$$    ",
"           =-   ",
"           .$   ",
"           .$   ",
"            %   ",
"  +.&&  ..+;$   ",
"  +$&&%%$$+     ",
"                ",
"                "};
