/* XPM */
static char * s17_xpm[] = {
"16 16 16 1",
" 	c #FFFFFF",
".	c #C9C9C9",
"+	c #A8A8A8",
"@	c #939393",
"#	c #9E9E9E",
"$	c #EAEAEA",
"%	c #7D7D7D",
"&	c #B8B8B8",
"*	c #848484",
"=	c #D7D7D7",
"-	c #7E7E7E",
";	c #C0C0C0",
">	c #D4D4D4",
",	c #747474",
"'	c #878787",
")	c #9A9A9A",
"     ..+@@#     ",
"    ...$  %&    ",
"   *#      *&   ",
"  +=        -;  ",
"  +$        >>  ",
"  &*            ",
"   .,+#.        ",
"     $#.@$      ",
"         +      ",
"          +$    ",
"          .*    ",
"  ##       '    ",
"   +$      +$   ",
"   ##     &+    ",
"    ++...)*     ",
"    $$...$      "};
