/* XPM */
static char * t00_xpm[] = {
"16 16 11 1",
" 	c #FFFFFF",
".	c #C9C9C9",
"+	c #747474",
"@	c #EAEAEA",
"#	c #A8A8A8",
"$	c #9E9E9E",
"%	c #E4E4E4",
"&	c #848484",
"*	c #B8B8B8",
"=	c #939393",
"-	c #9A9A9A",
"     .          ",
"     +          ",
"    @#          ",
"    ..          ",
"    $$          ",
" %%.&*....      ",
" %%.&*....      ",
"    =           ",
"   @#           ",
"   @#           ",
"   @#     ..    ",
"    #@     =    ",
"    ..    =     ",
"    $$@@.#      ",
"     #-#.@      ",
"                "};
