/* XPM */
static char * t01_xpm[] = {
"16 16 16 1",
" 	c #FFFFFF",
".	c #D4D4D4",
"+	c #F4F4F4",
"@	c #8C8C8C",
"#	c #E0E0E0",
"$	c #939393",
"%	c #EAEAEA",
"&	c #A8A8A8",
"*	c #ECECEC",
"=	c #BBBBBB",
"-	c #848484",
";	c #FCFCFC",
">	c #B8B8B8",
",	c #C9C9C9",
"'	c #9E9E9E",
")	c #9A9A9A",
"     .+         ",
"     @#         ",
"     $          ",
"    %&          ",
"    %&          ",
" *=&--&&&&&     ",
" ;*%>>%%%%%     ",
"    ,,          ",
"    ''          ",
"    ,,          ",
"    ,,     ,,   ",
"    ,,    %&    ",
"    ,,    ''    ",
"     $   >&     ",
"     &)&$,      ",
"      %%        "};
