/* XPM */
static char * t02_xpm[] = {
"16 16 9 1",
" 	c #FFFFFF",
".	c #A8A8A8",
"+	c #EAEAEA",
"@	c #9A9A9A",
"#	c #C9C9C9",
"$	c #939393",
"%	c #616161",
"&	c #878787",
"*	c #9E9E9E",
"     .          ",
"    +@          ",
"    ##          ",
"    ##          ",
"    ## +#       ",
"##$$%&$.#       ",
"    $           ",
"    $           ",
"    $           ",
"    $           ",
"    $      $    ",
"    .+    ##    ",
"    ##    .+    ",
"     $*  +.     ",
"      *$.$      ",
"        +       "};
