/* XPM */
static char * t10_xpm[] = {
"16 16 8 1",
" 	c #FFFFFF",
".	c #A8A8A8",
"+	c #878787",
"@	c #EAEAEA",
"#	c #C9C9C9",
"$	c #939393",
"%	c #616161",
"&	c #9E9E9E",
"    .           ",
"    +           ",
"   @.           ",
"   @.           ",
"   ##           ",
"   ##    @ @    ",
"@.$%+$$...$.    ",
"   .@  @@       ",
"   .@           ",
"   .@           ",
"   .@           ",
"   .@           ",
"   ##      @.   ",
"   ##@     &&   ",
"   ##.    @.    ",
"   ####&&..@    "};
