/* XPM */
static char * t11_xpm[] = {
"16 16 12 1",
" 	c #FFFFFF",
".	c #A8A8A8",
"+	c #EAEAEA",
"@	c #9B9B9B",
"#	c #797979",
"$	c #B8B8B8",
"%	c #C9C9C9",
"&	c #9E9E9E",
"*	c #BBBBBB",
"=	c #848484",
"-	c #939393",
";	c #7D7D7D",
" .+             ",
" .+             ",
" .+             ",
" .+             ",
"@#$%%%%%%&&     ",
"*=$%%%%%%%%     ",
" .+             ",
" .+             ",
" .+            -",
" .+           +.",
" .+           $=",
" .+           - ",
" &&          %% ",
"  %;         -  ",
"   ;%%%%%%---   ",
"     %%%%%      "};
