/* XPM */
static char * t17_xpm[] = {
"16 16 14 1",
" 	c #FFFFFF",
".	c #C9C9C9",
"+	c #747474",
"@	c #EAEAEA",
"#	c #848484",
"$	c #D7D7D7",
"%	c #6F6F6F",
"&	c #A8A8A8",
"*	c #939393",
"=	c #9E9E9E",
"-	c #4C4C4C",
";	c #858585",
">	c #7D7D7D",
",	c #B8B8B8",
"                ",
"       ..       ",
"       +.       ",
"      @#.    @  ",
"      $%@..&*&  ",
"  @@=.-+&..@    ",
"@&&&=#;=        ",
"    >=&@        ",
"   &, *         ",
"  *  ==         ",
"     &@         ",
"    ..      &@  ",
"    ..      &@  ",
"    ..     .    ",
"    .. @@.*.    ",
"      *&&.      "};
