/* XPM */
static char * u04_xpm[] = {
"16 16 13 1",
" 	c #FFFFFF",
".	c #C9C9C9",
"+	c #939393",
"@	c #EAEAEA",
"#	c #9E9E9E",
"$	c #A8A8A8",
"%	c #707070",
"&	c #8E8E8E",
"*	c #7D7D7D",
"=	c #848484",
"-	c #B8B8B8",
";	c #6A6A6A",
">	c #9A9A9A",
"                ",
"                ",
"    .+          ",
"  @+#.    @$    ",
"  $ @$    ##    ",
"%.  @$    ##    ",
"&   ..    **    ",
"    $@    ##    ",
"   @$     =-    ",
"   ..     ;.    ",
"   ..     >$    ",
"   .=.   + .*@.=",
"    @.+++   #$.@",
"                ",
"                ",
"                "};
