/* XPM */
static char * u07_xpm[] = {
"16 16 14 1",
" 	c #FFFFFF",
".	c #EAEAEA",
"+	c #A8A8A8",
"@	c #C9C9C9",
"#	c #878787",
"$	c #747474",
"%	c #848484",
"&	c #A9A9A9",
"*	c #6F6F6F",
"=	c #9E9E9E",
"-	c #B8B8B8",
";	c #939393",
">	c #9A9A9A",
",	c #D7D7D7",
"                ",
"                ",
"                ",
"   .+     @@    ",
"   +#     $@    ",
"  %&+    .*.    ",
" =@@@    @%.    ",
"+- ;     >>     ",
"  @@     ;;     ",
"  @@    .+;     ",
"  @@    @@;   +.",
"  .+   ,+ ;   ; ",
"  .+=@++  ; @=@ ",
"    =@.   @$@@  ",
"                ",
"                "};
