/* XPM */
static char * u12_xpm[] = {
"16 16 12 1",
" 	c #FFFFFF",
".	c #939393",
"+	c #A8A8A8",
"@	c #EAEAEA",
"#	c #C9C9C9",
"$	c #6F6F6F",
"%	c #D7D7D7",
"&	c #7D7D7D",
"*	c #B8B8B8",
"=	c #848484",
"-	c #9E9E9E",
";	c #747474",
" .            +@",
"##            $%",
"##            $%",
"##            &&",
"##            *=",
"--            *=",
"##            *=",
"##            &&",
"##            --",
"##            =*",
"##           @=#",
" .           +*#",
" --        *+ ##",
"  .      -;=@ --",
"  @+..++.#    ##",
"      @@      ##"};
