/* XPM */
static char * u15_xpm[] = {
"16 16 12 1",
" 	c #FFFFFF",
".	c #EAEAEA",
"+	c #939393",
"@	c #C9C9C9",
"#	c #848484",
"$	c #9E9E9E",
"%	c #5B5B5B",
"&	c #D4D4D4",
"*	c #8D8D8D",
"=	c #A8A8A8",
"-	c #F4F4F4",
";	c #9A9A9A",
"                ",
"                ",
"                ",
"    .+     @@   ",
"  .@#@     $%   ",
"&*=@=.     ++   ",
"&-  +     @@+   ",
"    +     $$+   ",
"   @@     +.=   ",
"   =.    @@@@   ",
"   +     =.@@  @",
"   +    ;. $$ .=",
"   +   $=   =;= ",
"    +++$     .. ",
"                ",
"                "};
