/* XPM */
static char * u16_xpm[] = {
"16 16 9 1",
" 	c #FFFFFF",
".	c #EAEAEA",
"+	c #A8A8A8",
"@	c #9E9E9E",
"#	c #939393",
"$	c #848484",
"%	c #C9C9C9",
"&	c #B8B8B8",
"*	c #9A9A9A",
"   .+           ",
"   @@       #   ",
"  .$%      .$%  ",
"  #%%      %$.  ",
" +.%%      %$.  ",
"&% %%      +*.  ",
"+  %%      +*.  ",
"   %%      #+.  ",
"   +.     .++.  ",
"   #      %%%%  ",
"  .+      @@%%  ",
"  %%      +.%%  ",
"  %%     .+ %%  ",
"  #     %+  %%  ",
" .+@. %+%.  %%  ",
"   @+#%.    .+  "};
