/* XPM */
static char * ue01_xpm[] = {
"16 16 13 1",
" 	c #FFFFFF",
".	c #C9C9C9",
"+	c #F4F4F4",
"@	c #B0B0B0",
"#	c #939393",
"$	c #A8A8A8",
"%	c #D7D7D7",
"&	c #6F6F6F",
"*	c #EAEAEA",
"=	c #B8B8B8",
"-	c #848484",
";	c #9E9E9E",
">	c #9A9A9A",
"                ",
"     . +@+      ",
"     . +@+      ",
"                ",
"                ",
"                ",
"   ..           ",
"  ...      #    ",
" $...     %&    ",
".* ..     =-    ",
"   ;;     $>*   ",
"   *$    -*$*   ",
"    #   ;. ..  $",
"    $**#;  ..  $",
"    ..$    *$*;#",
"            $>; "};
