/* XPM */
static char * ue03_xpm[] = {
"16 16 17 1",
" 	c #FFFFFF",
".	c #BABABA",
"+	c #BBBBBB",
"@	c #F4F4F4",
"#	c #D4D4D4",
"$	c #C9C9C9",
"%	c #B6B6B6",
"&	c #9B9B9B",
"*	c #EAEAEA",
"=	c #A8A8A8",
"-	c #939393",
";	c #616161",
">	c #747474",
",	c #878787",
"'	c #848484",
")	c #D7D7D7",
"!	c #9A9A9A",
"                ",
"     .+ @#$     ",
"     %& @#$     ",
"                ",
"                ",
"    *           ",
"   $=      -    ",
" *=$=*    *;    ",
"$=* =*    $>    ",
"$   =*    =,    ",
"    =*    =,    ",
"    =*   *=-    ",
"    =*   $$=*   ",
"    =*   - $'*)=",
"     -=--   *=!=",
"      *         "};
