/* XPM */
static char * ue14_xpm[] = {
"16 16 17 1",
" 	c #FFFFFF",
".	c #E4E4E4",
"+	c #B4B4B4",
"@	c #A7A7A7",
"#	c #D3D3D3",
"$	c #E1E1E1",
"%	c #939393",
"&	c #D7D7D7",
"*	c #A8A8A8",
"=	c #555555",
"-	c #C9C9C9",
";	c #848484",
">	c #B8B8B8",
",	c #EAEAEA",
"'	c #9E9E9E",
")	c #747474",
"!	c #9A9A9A",
"    .+  @#      ",
"    .+  #$      ",
"                ",
"           %    ",
"   &*      =    ",
"  -;%      ;>   ",
" ,* %      ''   ",
" %  %      ''   ",
"-   %      ;>   ",
"-  ,*      ;>   ",
"   ,*      )-   ",
"   ,*     ,!*   ",
"   ,*    ,* %   ",
"   ,*   -*, *,  ",
"   ,*  --   '',%",
"    %%%-    ,** "};
