/* XPM */
static char * uu00_xpm[] = {
"16 16 13 1",
" 	c #FFFFFF",
".	c #BBBBBB",
"+	c #ECECEC",
"@	c #C9C9C9",
"#	c #BABABA",
"$	c #FCFCFC",
"%	c #939393",
"&	c #EAEAEA",
"*	c #A8A8A8",
"=	c #797979",
"-	c #9E9E9E",
";	c #848484",
">	c #B8B8B8",
"         .+     ",
"        @#$     ",
"        %       ",
"       @@       ",
"                ",
"     &      @@  ",
"    *=@     --  ",
"  &% @@     ;>  ",
"  *  @@     ;>  ",
"     @@     ;>  ",
"     @@    &;@  ",
"     @@    %@@  ",
"      %  &>*-- @",
"       @@*@ &* @",
"       @@    %-@",
"              @ "};
