/* XPM */
static char * uu02_xpm[] = {
"16 16 10 1",
" 	c #FFFFFF",
".	c #EAEAEA",
"+	c #A8A8A8",
"@	c #939393",
"#	c #C9C9C9",
"$	c #B8B8B8",
"%	c #7D7D7D",
"&	c #9E9E9E",
"*	c #848484",
"=	c #9A9A9A",
"        .+      ",
"        @       ",
"       ##       ",
"       +.       ",
"       @        ",
"                ",
"    $+     .+   ",
"  #+#@     %%   ",
"#+#..+     &&   ",
"#.  .+     *$   ",
"    &&    #&#   ",
"    ##    +##   ",
"    ##  .+..+   ",
"    ##.#+.  +=#&",
"    .++#     .##",
"                "};
