/* XPM */
static char * uu04_xpm[] = {
"16 16 9 1",
" 	c #FFFFFF",
".	c #A8A8A8",
"+	c #939393",
"@	c #EAEAEA",
"#	c #9E9E9E",
"$	c #C9C9C9",
"%	c #848484",
"&	c #B8B8B8",
"*	c #878787",
"       .        ",
"       +        ",
"      @.        ",
"      #$        ",
"      $         ",
"                ",
"                ",
"   +      @.    ",
" #+$$     %&    ",
".# $$    @%$    ",
"@  $$    $%@    ",
"   $$    .*     ",
"   $$   $&.    @",
"   ##   + +   $%",
"    +  +  +$&+  ",
"    $$+   .&%   "};
