/* XPM */
static char * uu06_xpm[] = {
"16 16 12 1",
" 	c #FFFFFF",
".	c #9E9E9E",
"+	c #A8A8A8",
"@	c #EAEAEA",
"#	c #C9C9C9",
"$	c #B8B8B8",
"%	c #9A9A9A",
"&	c #919191",
"*	c #878787",
"=	c #939393",
"-	c #D7D7D7",
";	c #7D7D7D",
"       ..       ",
"       +@       ",
"      @+        ",
"                ",
"   #+     @+    ",
" .+#$#    %%    ",
"+&@ +@    %%    ",
"    +@    *+    ",
"    +@   @%+    ",
"    =    .&+    ",
"    =    +-+    ",
"    =   ##@+    ",
"    =   = @+    ",
"    +$@+  @+   .",
"     #+@   #;#+.",
"            .#@ "};
