/* XPM */
static char * uu07_xpm[] = {
"16 16 12 1",
" 	c #FFFFFF",
".	c #A8A8A8",
"+	c #C9C9C9",
"@	c #B8B8B8",
"#	c #848484",
"$	c #EAEAEA",
"%	c #9E9E9E",
"&	c #939393",
"*	c #5B5B5B",
"=	c #D4D4D4",
"-	c #7D7D7D",
";	c #878787",
"        .       ",
"       +@       ",
"       #+       ",
"       $   ++   ",
"    %      %%   ",
"  $&*      %%   ",
"=&. .$     %%   ",
"=   .$     --   ",
"    .$     ;.   ",
"    .$    +@.   ",
"    .$    &$.   ",
"    &    $.$.   ",
"   $.  $+&  .$  ",
"   $..&.+   $.  ",
"     $        &.",
"               $"};
