/* XPM */
static char * uu13_xpm[] = {
"16 16 15 1",
" 	c #FFFFFF",
".	c #D4D4D4",
"+	c #A0A0A0",
"@	c #B8B8B8",
"#	c #8D8D8D",
"$	c #C9C9C9",
"%	c #939393",
"&	c #7D7D7D",
"*	c #EAEAEA",
"=	c #A8A8A8",
"-	c #848484",
";	c #747474",
">	c #6F6F6F",
",	c #878787",
"'	c #9A9A9A",
"      ..        ",
"      +@        ",
"      .#        ",
"                ",
"   $$     $$    ",
"   %      &&    ",
"  *=      -@    ",
"  *=      ;$    ",
"  $$     *>*    ",
"  $$     $;     ",
"  $$     =,     ",
"  =*    @$%     ",
"  =*   $= %     ",
"  =* *$$  =*  =*",
"  =@==$   ='*'* ",
"   $*      *==  "};
