/* XPM */
static char * uu15_xpm[] = {
"16 16 18 1",
" 	c #FFFFFF",
".	c #ECECEC",
"+	c #BBBBBB",
"@	c #E7E7E7",
"#	c #9B9B9B",
"$	c #EAEAEA",
"%	c #A8A8A8",
"&	c #C9C9C9",
"*	c #848484",
"=	c #979797",
"-	c #939393",
";	c #9E9E9E",
">	c #A7A7A7",
",	c #C0C0C0",
"'	c #B8B8B8",
")	c #9A9A9A",
"!	c #919191",
"~	c #878787",
"      .+        ",
"      @#        ",
"      $%        ",
"      $%        ",
"      $%        ",
"      $%        ",
"      $%        ",
"&&    $%      &&",
"*=     -      ;;",
">,            ;;",
"'*            '*",
"&&            %)",
" -           ---",
" &&        &!&%'",
" &&     $;%&* &*",
"   %~---%;$   &&"};
