/* XPM */
static char * v01_xpm[] = {
"16 16 7 1",
" 	c #FFFFFF",
".	c #C9C9C9",
"+	c #9E9E9E",
"@	c #EAEAEA",
"#	c #A8A8A8",
"$	c #939393",
"%	c #9A9A9A",
"                ",
"                ",
"   .            ",
"   .        ++  ",
"   ..      @#   ",
"   ..     @#    ",
"   ..     #@    ",
"    $    @#     ",
"    #@   ..     ",
"    @#  @#      ",
"     #@ ..      ",
"      $ #@      ",
"       %#       ",
"       %@       ",
"                ",
"                "};
