/* XPM */
static char * v04_xpm[] = {
"16 16 8 1",
" 	c #FFFFFF",
".	c #E4E4E4",
"+	c #A8A8A8",
"@	c #EAEAEA",
"#	c #9E9E9E",
"$	c #939393",
"%	c #C9C9C9",
"&	c #878787",
"                ",
"                ",
"                ",
"  ..       +@   ",
"  ..      ##    ",
"   $      +@    ",
"   %%     $     ",
"    +@   %%     ",
"    %%   +@     ",
"     $  @+      ",
"     %% %%      ",
"     %%@+       ",
"      &+        ",
"      +@        ",
"                ",
"                "};
