/* XPM */
static char * v05_xpm[] = {
"16 16 9 1",
" 	c #FFFFFF",
".	c #FFFFFF",
"+	c #A7A7A7",
"@	c #C9C9C9",
"#	c #EAEAEA",
"$	c #A8A8A8",
"%	c #747474",
"&	c #9E9E9E",
"*	c #939393",
"                ",
"++           @@ ",
"#$           %@ ",
" &&         &&  ",
" #$        @@   ",
"  @@       *    ",
"  @@      &&    ",
"   *     #$     ",
"    $    @@     ",
"    #*  #$      ",
"     #$ @@      ",
"      @&*       ",
"       &@       ",
"                ",
"                ",
"                "};
