/* XPM */
static char * v07_xpm[] = {
"16 16 11 1",
" 	c #FFFFFF",
".	c #ECECEC",
"+	c #FCFCFC",
"@	c #BBBBBB",
"#	c #EAEAEA",
"$	c #A8A8A8",
"%	c #939393",
"&	c #C9C9C9",
"*	c #9E9E9E",
"=	c #848484",
"-	c #7D7D7D",
"                ",
".+              ",
"@.          #$  ",
" $#         %   ",
"  &*       &&   ",
"   =#      %    ",
"    %     #$    ",
"    &*    &&    ",
"    #=   #$     ",
"     **  %      ",
"     #$ &&      ",
"      $#%       ",
"      *-&       ",
"      &=#       ",
"      #$        ",
"                "};
