/* XPM */
static char * v11_xpm[] = {
"16 16 13 1",
" 	c #FFFFFF",
".	c #939393",
"+	c #C9C9C9",
"@	c #595959",
"#	c #EAEAEA",
"$	c #9E9E9E",
"%	c #A8A8A8",
"&	c #797979",
"*	c #848484",
"=	c #747474",
"-	c #B8B8B8",
";	c #919191",
">	c #686868",
"   .       +++  ",
"   @#    $+ ++  ",
"  %&+    *# ++  ",
" #%++     . %# #",
"#% $$     #%=++%",
"%  #%      %-++ ",
"#  #%     ++    ",
"    .    %#     ",
"    %#  #%      ",
"    #%  %#      ",
"     . #%       ",
"     %#++       ",
"     $;%        ",
"     #>$        ",
"      .         ",
"                "};
