/* XPM */
static char * v14_xpm[] = {
"16 16 11 1",
" 	c #9E9E9E",
".	c #FFFFFF",
"+	c #C9C9C9",
"@	c #939393",
"#	c #F4F4F4",
"$	c #8C8C8C",
"%	c #EAEAEA",
"&	c #D4D4D4",
"*	c #A8A8A8",
"=	c #B8B8B8",
"-	c #686868",
"               +",
"@               ",
"#$%            @",
"#&            ++",
" ++           *%",
" %*          =+ ",
"  *%         *  ",
"  ++       %*   ",
"   @       *%   ",
"          ++    ",
"    @     +     ",
"    ++   +      ",
"     @ ++       ",
"     *=+        ",
"      -%        ",
"     ++         "};
