/* XPM */
static char * v15_xpm[] = {
"16 16 7 1",
" 	c #FFFFFF",
".	c #C9C9C9",
"+	c #EAEAEA",
"@	c #939393",
"#	c #9E9E9E",
"$	c #A8A8A8",
"%	c #686868",
"                ",
"..             +",
" @             @",
" ##           ..",
"  @          .. ",
"  ..        ..  ",
"  +$        $+  ",
"   $+      ..   ",
"   ##     ..    ",
"    @     @     ",
"    ..   $+     ",
"    +$  ..      ",
"     $+..       ",
"     $+@        ",
"     #%+        ",
"     +$         "};
