/* XPM */
static char * v17_xpm[] = {
"16 16 9 1",
" 	c #FFFFFF",
".	c #D4D4D4",
"+	c #F4F4F4",
"@	c #A1A1A1",
"#	c #EAEAEA",
"$	c #A8A8A8",
"%	c #939393",
"&	c #C9C9C9",
"*	c #9E9E9E",
"                ",
"..              ",
"+@#             ",
" #$             ",
"  %            &",
"  &&          #$",
"   %          % ",
"   &&        $# ",
"    %       &&  ",
"    &&      %   ",
"     %&    $#   ",
"     &*   $#    ",
"      && $#     ",
"       %&&      ",
"       **       ",
"                "};
