/* XPM */
static char * w02_xpm[] = {
"16 16 9 1",
" 	c #FFFFFF",
".	c #EAEAEA",
"+	c #A8A8A8",
"@	c #E4E4E4",
"#	c #9E9E9E",
"$	c #5B5B5B",
"%	c #939393",
"&	c #B4B4B4",
"*	c #C9C9C9",
"                ",
"                ",
"                ",
"       .+       ",
" @@    #$    %  ",
" &&   .++.  .+  ",
"  +.  **##  **  ",
"  **  +..+  **  ",
"   % .+  %  %   ",
"   +.**  ****   ",
"   .++.  **+.   ",
"     *    %%    ",
"     *    **    ",
"                ",
"                ",
"                "};
