/* XPM */
static char * w03_xpm[] = {
"16 16 9 1",
" 	c #FFFFFF",
".	c #C9C9C9",
"+	c #A8A8A8",
"@	c #EAEAEA",
"#	c #9E9E9E",
"$	c #B8B8B8",
"%	c #939393",
"&	c #848484",
"*	c #878787",
"                ",
"                ",
"                ",
"               .",
" +@       +@   #",
" ..      .#.   +",
"  +@     +$.   %",
"  @+    @+..  @+",
"   @+   +@@+  +@",
"    ## ..  +@@+ ",
"     +@+@  +@.. ",
"      &$    *+  ",
"      +@    ..  ",
"                ",
"                ",
"                "};
