/* XPM */
static char * w07_xpm[] = {
"16 16 9 1",
" 	c #FFFFFF",
".	c #C9C9C9",
"+	c #A8A8A8",
"@	c #EAEAEA",
"#	c #939393",
"$	c #747474",
"%	c #9E9E9E",
"&	c #D7D7D7",
"*	c #B8B8B8",
"                ",
"                ",
"                ",
"..      +@     #",
" #      $.    %%",
" ..    .%.    ..",
"  +@   +&+   @+ ",
"  @+  @+ #   %% ",
"   .. %% +@  +@ ",
"   .. #  .. ..  ",
"    #..   # +@  ",
"    .%.   .*+   ",
"     +@    #    ",
"                ",
"                ",
"                "};
