/* XPM */
static char * w13_xpm[] = {
"16 16 11 1",
" 	c #FFFFFF",
"*	c #000000",
"+	c #EAEAEA",
"@	c #A8A8A8",
"#	c #747474",
"$	c #C9C9C9",
"%	c #878787",
"&	c #9E9E9E",
"*	c #848484",
"=	c #B8B8B8",
"-	c #5B5B5B",
"*      *      +@",
"@+     #$     +@",
"$$     %@     $$",
" *     %@     @+",
" &&    %@     * ",
" +@   *=*    +@ ",
"  *   * @+   && ",
"  @+ +@ @+   @+ ",
"  $$ && &&   *  ",
"  $$ @+ $$  +@  ",
"  +@ *  +@  $$  ",
"  +@+@   * +@   ",
"   *$$   * $$   ",
"   **    @+*    ",
"   -&    $&$    ",
"   @+    $$     "};
