/* XPM */
static char * w14_xpm[] = {
"16 16 16 1",
" 	c #FFFFFF",
".	c #747474",
"+	c #C9C9C9",
"@	c #9E9E9E",
"#	c #B8B8B8",
"$	c #878787",
"%	c #EAEAEA",
"&	c #9A9A9A",
"*	c #A8A8A8",
"=	c #6F6F6F",
"-	c #D4D4D4",
";	c #939393",
">	c #616161",
",	c #686868",
"'	c #7D7D7D",
")	c #919191",
"                ",
"                ",
"   .+        +  ",
"  @@#+  ++   +$%",
"  &&*   .+  %&=*",
"-;>%    .+   %* ",
"- *%   %,@   ++ ",
"  *%   @'+   *% ",
"  ++  %*%*  %*  ",
"  %*  @@%*  @@  ",
"   ++ ;  ; %*   ",
"   %*)@  *%;    ",
"     *   ++     ",
"                ",
"                ",
"                "};
