/* XPM */
static char * w15_xpm[] = {
"16 16 11 1",
" 	c #FFFFFF",
".	c #C9C9C9",
"+	c #EAEAEA",
"@	c #A8A8A8",
"#	c #747474",
"$	c #939393",
"%	c #9E9E9E",
"&	c #686868",
"*	c #B8B8B8",
"=	c #848484",
"-	c #919191",
"                ",
"                ",
"                ",
"..      +@     .",
"..      .#     $",
" @+     %&+   +@",
" ..     $..   @+",
"  @+   %%%%  +@ ",
"  +@  +@ ..  .. ",
"   .. %%  @+ @+ ",
"    .*@   ..+@  ",
"     #.    =-.  ",
"     @+     $   ",
"                ",
"                ",
"                "};
