/* XPM */
static char * w16_xpm[] = {
"16 16 7 1",
" 	c #FFFFFF",
".	c #A8A8A8",
"+	c #EAEAEA",
"@	c #C9C9C9",
"#	c #9A9A9A",
"$	c #939393",
"%	c #9E9E9E",
"                ",
"                ",
"                ",
"                ",
"  .+   @@       ",
"  .+   ##    .+ ",
"  .+  +.$   +.  ",
"  .+  @@@@  @@  ",
"  @@  $ +.  .+  ",
"  @@ @@  .++.   ",
"   $+.   @@@@   ",
"   @%     $$    ",
"    @     %%    ",
"                ",
"                ",
"                "};
