/* XPM */
static char * x00_xpm[] = {
"16 16 14 1",
" 	c #FFFFFF",
".	c #F4F4F4",
"+	c #ECECEC",
"@	c #939393",
"#	c #D4D4D4",
"$	c #FCFCFC",
"%	c #BABABA",
"&	c #C9C9C9",
"*	c #EAEAEA",
"=	c #A8A8A8",
"-	c #848484",
";	c #919191",
">	c #9E9E9E",
",	c #D7D7D7",
"                ",
"                ",
"          ..    ",
" +@       ##    ",
" $%&     &&     ",
"   &@   *=      ",
"     @ *=       ",
"      @@        ",
"      &-;       ",
"     && >=      ",
"     @   ,=*    ",
"   *=      =@   ",
"   &&           ",
"  &&            ",
"                ",
"                "};
