/* XPM */
static char * x01_xpm[] = {
"16 16 13 1",
" 	c #FFFFFF",
".	c #F4F4F4",
"+	c #A7A7A7",
"@	c #D4D4D4",
"#	c #848484",
"$	c #8C8C8C",
"%	c #E0E0E0",
"&	c #B8B8B8",
"*	c #A8A8A8",
"=	c #EAEAEA",
"-	c #939393",
";	c #C9C9C9",
">	c #9E9E9E",
"                ",
"                ",
" .+        @.   ",
" .+#       $%   ",
"   &*     *=    ",
"    =-=  -      ",
"      *;-       ",
"       >>       ",
"      ;;;-=     ",
"     ;;   *=    ",
"    >>     *    ",
"   -       =*   ",
"  *         ;;  ",
"  =             ",
"                ",
"                "};
