/* XPM */
static char * x05_xpm[] = {
"16 16 11 1",
" 	c #FFFFFF",
".	c #C9C9C9",
"+	c #F4F4F4",
"@	c #D4D4D4",
"#	c #A8A8A8",
"$	c #EAEAEA",
"%	c #A1A1A1",
"&	c #939393",
"*	c #9E9E9E",
"=	c #7D7D7D",
"-	c #B8B8B8",
"                ",
" .              ",
" ..        +@   ",
"  .#      $%@   ",
"   $&$   .#$    ",
"     #*  .      ",
"      *=&       ",
"     $#=&$      ",
"    $#$  #.     ",
"    #     .     ",
"   #$      &    ",
"  ..       $#   ",
" -#        ..   ",
" .          ..  ",
"                ",
"                "};
