/* XPM */
static char * x11_xpm[] = {
"16 16 12 1",
" 	c #FFFFFF",
".	c #D4D4D4",
"+	c #F4F4F4",
"@	c #8C8C8C",
"#	c #E0E0E0",
"$	c #A8A8A8",
"%	c #EAEAEA",
"&	c #939393",
"*	c #9E9E9E",
"=	c #C9C9C9",
"-	c #686868",
";	c #848484",
"                ",
"                ",
"     .+         ",
"     @#   $%    ",
"     $%   $%    ",
"     $%   &     ",
"     **  ==     ",
"     %$ %$      ",
"      $%$%      ",
"      %-*     ==",
" &    =;%     & ",
"  &=%=& &%%%=&  ",
"   =$=   $$$=   ",
"                ",
"                ",
"                "};
