/* XPM */
static char * x12_xpm[] = {
"16 16 12 1",
" 	c #ffffff",
"*	c #000000",
"+	c #A7A7A7",
"@	c #A8A8A8",
"#	c #EAEAEA",
"$	c #9A9A9A",
"%	c #C9C9C9",
"&	c #9E9E9E",
"*	c #7D7D7D",
"=	c #848484",
"-	c #B8B8B8",
";	c #747474",
"*             ++",
" @           #@ ",
" $#          *  ",
" %%        #@   ",
"  *        *    ",
"  @#      @#    ",
"  #@     %%     ",
"   &&   %%      ",
"    @# #@       ",
"     * @#      @",
"*    %*&      &&",
"&&   #=%     #@ ",
" *   %%@#    %% ",
"  @% *  %%  #@  ",
"  #-*   #@  *   ",
"   @      %;    "};
