/* XPM */
static char * x14_xpm[] = {
"16 16 12 1",
" 	c #FFFFFF",
".	c #ECECEC",
"+	c #BBBBBB",
"@	c #EAEAEA",
"#	c #A8A8A8",
"$	c #C9C9C9",
"%	c #9E9E9E",
"&	c #939393",
"*	c #7D7D7D",
"=	c #B8B8B8",
"-	c #848484",
";	c #686868",
" .+       @#    ",
"  $$      %%    ",
"  $$     @#     ",
"   &     &      ",
"   $$   $$      ",
"    $%  &       ",
"     *%@#       ",
"     @##@       ",
"      =-        ",
"      %;@       ",
"      &@#       ",
"     @# #@      ",
"     %% @#      ",
"     &   @#     ",
"    %%    %%    ",
"   @#      $$   "};
