/* XPM */
static char * x15_xpm[] = {
"16 16 12 1",
" 	c #FFFFFF",
".	c #C9C9C9",
"+	c #D4D4D4",
"@	c #747474",
"#	c #A8A8A8",
"$	c #EAEAEA",
"%	c #939393",
"&	c #D7D7D7",
"*	c #9E9E9E",
"=	c #848484",
"-	c #6F6F6F",
";	c #7D7D7D",
"                ",
"                ",
".              +",
"@.             +",
" .#$         .% ",
"  $#..     .#.  ",
"    ..%.&*%.$   ",
"      .=-;$     ",
"   ..%.$ .#*    ",
"  %..      *#$  ",
".%          $#. ",
"=             .*",
"               *",
"                ",
"                ",
"                "};
