/* XPM */
static char * x17_xpm[] = {
"16 16 13 1",
" 	c #FFFFFF",
".	c #E4E4E4",
"+	c #F4F4F4",
"@	c #D4D4D4",
"#	c #838383",
"$	c #EAEAEA",
"%	c #A1A1A1",
"&	c #A8A8A8",
"*	c #C9C9C9",
"=	c #D7D7D7",
"-	c #848484",
";	c #939393",
">	c #B8B8B8",
"                ",
"                ",
"..        +@    ",
".#$       %@    ",
"  &*    $&=     ",
"   **  *&       ",
"    *-;*        ",
"   $&>;$        ",
"   &$  &        ",
"  ;     **      ",
" &$      &$     ",
"**        ;*    ",
"           **   ",
"            *   ",
"                ",
"                "};
