/* XPM */
static char * y01_xpm[] = {
"16 16 16 1",
" 	c #FFFFFF",
".	c #C9C9C9",
"+	c #F4F4F4",
"@	c #9E9E9E",
"#	c #D7D7D7",
"$	c #6F6F6F",
"%	c #D4D4D4",
"&	c #555555",
"*	c #EAEAEA",
"=	c #A8A8A8",
"-	c #848484",
";	c #B8B8B8",
">	c #686868",
",	c #919191",
"'	c #939393",
")	c #9A9A9A",
"   .     ..     ",
" ++@.    #$     ",
" %%..     &     ",
"   *=     $#    ",
"   *=     -;    ",
"    =*    >@  . ",
"    ..  *=#= -, ",
"    *=''=**)-.  ",
"        *;)$*   ",
"      .==-#=    ",
"     ..*  ..    ",
"    ..    ..    ",
"   *-     *=    ",
"    '*    @@    ",
"     ==.  =*    ",
"      *.'=      "};
