/* XPM */
static char * y03_xpm[] = {
"16 16 13 1",
" 	c #FFFFFF",
".	c #C9C9C9",
"+	c #6A6A6A",
"@	c #A8A8A8",
"#	c #7D7D7D",
"$	c #9E9E9E",
"%	c #EAEAEA",
"&	c #848484",
"*	c #B8B8B8",
"=	c #686868",
"-	c #939393",
";	c #5B5B5B",
">	c #747474",
"  .+@    ..     ",
" #$%@    $$     ",
" . %@    &*     ",
"   %@    +.   ..",
"   %@    =$   - ",
"    -   -%@ %-  ",
"    $$%-  -.@   ",
"    %@@   ;$    ",
"         .=%    ",
"       %@ ..    ",
"      $&% ..    ",
"     >.   ..    ",
"     .%   @%    ",
"      @$%.@%    ",
"       $@.      ",
"                "};
