/* XPM */
static char * y05_xpm[] = {
"16 16 18 1",
" 	c #FFFFFF",
".	c #747474",
"+	c #C9C9C9",
"@	c #848484",
"#	c #EAEAEA",
"$	c #9E9E9E",
"%	c #F4F4F4",
"&	c #B1B1B1",
"*	c #B8B8B8",
"=	c #D4D4D4",
"-	c #8C8C8C",
";	c #A8A8A8",
">	c #939393",
",	c #878787",
"'	c #C0C0C0",
")	c #9A9A9A",
"!	c #7A7A7A",
"~	c #A7A7A7",
"   .      ++    ",
"  +@#     $$    ",
"%&$$$     @*    ",
"=- ++     @*    ",
"   ++     .+    ",
"   ++    ;*+    ",
"   ++    >++ #; ",
"   #;   ;#++ >  ",
"    ;,+@+ +$+   ",
"      +#  +.    ",
"        #$.+    ",
"     +;>;$++    ",
"    ;+#   ++    ",
"   +*     ++    ",
"    >    %'+    ",
"     ;$);!~+    "};
