/* XPM */
static char * y07_xpm[] = {
"16 16 15 1",
" 	c #FFFFFF",
".	c #EAEAEA",
"+	c #A8A8A8",
"@	c #9E9E9E",
"#	c #686868",
"$	c #616161",
"%	c #F4F4F4",
"&	c #979797",
"*	c #C9C9C9",
"=	c #D4D4D4",
"-	c #A7A7A7",
";	c #939393",
">	c #747474",
",	c #B8B8B8",
"'	c #848484",
"   .+    .+     ",
"   @#.   .$     ",
" %&*+.   .$     ",
" =- ;    .$   * ",
"   .+    *>  ;* ",
"   .+    *> ,*  ",
"   **   .+;*'   ",
"   **   +.>*    ",
"   **  + *>     ",
"   .'@;..+;     ",
"    *@  ;.+     ",
"       ; **     ",
"     *;  **     ",
"    *@   **     ",
"   .+    ;      ",
"    *,  .+      "};
