/* XPM */
static char * y14_xpm[] = {
"16 16 14 1",
" 	c #FFFFFF",
".	c #C9C9C9",
"+	c #D4D4D4",
"@	c #8C8C8C",
"#	c #A8A8A8",
"$	c #EAEAEA",
"%	c #979797",
"&	c #939393",
"*	c #919191",
"=	c #9E9E9E",
"-	c #B8B8B8",
";	c #7D7D7D",
">	c #848484",
",	c #747474",
"  ..      +@    ",
"   #$     %@    ",
"   $#     ..    ",
"     &    #$    ",
"      #*  &     ",
"       =#$#   = ",
"        -;. =&= ",
"         ;*.=   ",
"        $=>.    ",
"      .&#,      ",
"    .&. $#      ",
"   &.   #$      ",
"   &   $#       ",
"    &  &        ",
"     &==        ",
"     ..         "};
