/* XPM */
static char * z01_xpm[] = {
"16 16 15 1",
" 	c #FFFFFF",
".	c #C9C9C9",
"+	c #A8A8A8",
"@	c #EAEAEA",
"#	c #939393",
"$	c #F4F4F4",
"%	c #D4D4D4",
"&	c #B8B8B8",
"*	c #8C8C8C",
"=	c #9A9A9A",
"-	c #E0E0E0",
";	c #747474",
">	c #9E9E9E",
",	c #7D7D7D",
"'	c #919191",
"   .+@      .   ",
"  #.@+    @+.   ",
"$%    #  .+&.   ",
"$%    ..#. #    ",
"          ..    ",
"         @+     ",
"         +@     ",
"   %*...&=@     ",
"   $-...;++#    ",
"       +@       ",
"      ..        ",
"     &+         ",
"    >.          ",
"   +,.+.@   >.  ",
"  .'..@.+#++>.  ",
" ...      @@    "};
