/* XPM */
static char * z04_xpm[] = {
"16 16 15 1",
" 	c #FFFFFF",
".	c #9E9E9E",
"+	c #A8A8A8",
"@	c #EAEAEA",
"#	c #747474",
"$	c #C9C9C9",
"%	c #7D7D7D",
"&	c #BBBBBB",
"*	c #ECECEC",
"=	c #939393",
"-	c #FCFCFC",
";	c #B8B8B8",
">	c #878787",
",	c #919191",
"'	c #5B5B5B",
"   .++@     #   ",
"  $%@@+$   $#   ",
" &*    $=$+#    ",
" *-      $;$    ",
"         $$     ",
"         =      ",
"        +@      ",
"       $$       ",
"      $$        ",
"      =         ",
"     +@       +@",
"    $$.$      > ",
"   $$+,$=     + ",
"   .'    +;+++  ",
"  $$      $@@@  ",
"                "};
