/* XPM */
static char * z05_xpm[] = {
"16 16 15 1",
" 	c #FFFFFF",
".	c #939393",
"+	c #A8A8A8",
"@	c #EAEAEA",
"#	c #9E9E9E",
"$	c #C9C9C9",
"%	c #575757",
"&	c #BABABA",
"*	c #686868",
"=	c #B8B8B8",
"-	c #BBBBBB",
";	c #7D7D7D",
">	c #878787",
",	c #848484",
"'	c #636363",
"   .+        +@ ",
" #$ @.      @%@ ",
"&#    .     *=  ",
"-     $$   #;   ",
"       ##$>,    ",
"         $##    ",
"         @+     ",
"         .      ",
"        +@      ",
"       $        ",
"      $#        ",
"     .        @+",
"    .         @,",
"   +=$$@    $$.$",
"  '*$$$+.+++$$  ",
" *#@     @@@    "};
