/* XPM */
static char * z14_xpm[] = {
"16 16 13 1",
" 	c #FFFFFF",
".	c #EAEAEA",
"+	c #939393",
"@	c #A8A8A8",
"#	c #848484",
"$	c #C9C9C9",
"%	c #E0E0E0",
"&	c #A1A1A1",
"*	c #9E9E9E",
"=	c #5A5A5A",
"-	c #D4D4D4",
";	c #747474",
">	c #B8B8B8",
"                ",
"     .          ",
"   ++@.     #$  ",
" %&   @    *=*  ",
" --   .@  .@@.  ",
"        +$+.@.  ",
"         *;@    ",
"        $$      ",
"       >@       ",
"     .$$      *$",
"   .>#*$$.$$$+$ ",
" .>##$$$$@$$*   ",
" @#$     $#@$   ",
"          ..    ",
"                ",
"                "};
