/* XPM */
static char * z15_xpm[] = {
"16 16 11 1",
" 	c #FFFFFF",
".	c #FCFCFC",
"+	c #ECECEC",
"@	c #BBBBBB",
"#	c #939393",
"$	c #C9C9C9",
"%	c #9E9E9E",
"&	c #A8A8A8",
"*	c #EAEAEA",
"=	c #D7D7D7",
"-	c #848484",
"                ",
"                ",
"  .+            ",
"  +@########    ",
"          $$    ",
"         %%     ",
"        $#      ",
"        $       ",
"       &*       ",
"      #         ",
"    =&          ",
"   $-$$$$&&&&   ",
"   $$$$$$****   ",
"                ",
"                ",
"                "};
