/* XPM */
static char * z17_xpm[] = {
"16 16 14 1",
" 	c #FFFFFF",
".	c #C9C9C9",
"+	c #EAEAEA",
"@	c #939393",
"#	c #A8A8A8",
"$	c #848484",
"%	c #919191",
"&	c #B8B8B8",
"*	c #E0E0E0",
"=	c #8C8C8C",
"-	c #9E9E9E",
";	c #F4F4F4",
">	c #D4D4D4",
",	c #D7D7D7",
"  ..++  +..@##$#",
"+#..##@@#.. +%&+",
"*=         +#-  ",
";>         #+   ",
"         &#     ",
"        #.      ",
"       @+       ",
"      #         ",
"     #,         ",
"    #+          ",
"   #+          @",
"  ..           @",
" +#           +#",
" #+           +#",
" @-#..........# ",
"..-+..........+ "};
